<svg width="1272" height="595" viewBox="0 0 1272 595" fill="none" xmlns="http://www.w3.org/2000/svg">
    <path d="M617.6 7H402.3V587H617.6V7Z" fill="#F4F4F5"/>
    <path d="M483.4 48.7999V46.5999C483.6 46.7999 483.8 46.8999 484.1 47.0999C484.4 47.1999 484.7 47.4 485 47.5C485.3 47.6 485.6 47.7 485.9 47.7C486.2 47.8 486.5 47.7999 486.8 47.7999C487.7 47.7999 488.4 47.5999 488.8 47.2999C489.2 46.9999 489.5 46.6 489.5 46C489.5 45.7 489.4 45.4 489.3 45.2C489.2 45 488.9 44.7999 488.7 44.5999C488.4 44.3999 488.1 44.1999 487.8 44.0999C487.4 43.8999 487 43.6999 486.6 43.5999C486.2 43.3999 485.7 43.1 485.4 42.9C485 42.7 484.7 42.3999 484.4 42.0999C484.1 41.7999 483.9 41.4999 483.7 41.0999C483.5 40.6999 483.5 40.2999 483.5 39.7999C483.5 39.1999 483.6 38.6 483.9 38.2C484.2 37.7 484.5 37.4 485 37.1C485.5 36.8 486 36.6 486.5 36.4C487.1 36.3 487.7 36.2 488.3 36.2C489.7 36.2 490.7 36.4 491.3 36.7V38.7999C490.6 38.2999 489.6 38 488.4 38C488.1 38 487.8 38 487.4 38.1C487.1 38.2 486.8 38.3 486.5 38.4C486.2 38.5 486 38.7 485.9 38.9C485.7 39.1 485.7 39.4 485.7 39.7C485.7 40 485.8 40.2 485.9 40.5C486 40.7 486.2 40.8999 486.4 41.0999C486.6 41.2999 486.9 41.3999 487.3 41.5999C487.6 41.7999 488 41.8999 488.5 42.0999C489 42.2999 489.4 42.5999 489.8 42.7999C490.2 43.0999 490.6 43.4 490.9 43.7C491.2 44 491.5 44.3999 491.6 44.7999C491.8 45.1999 491.9 45.5999 491.9 46.0999C491.9 46.7999 491.8 47.2999 491.5 47.7999C491.2 48.2999 490.9 48.6 490.4 48.9C489.9 49.2 489.4 49.4 488.8 49.5C488.2 49.6 487.6 49.7 486.9 49.7C486.7 49.7 486.4 49.6999 486.1 49.5999C485.8 49.5999 485.5 49.5 485.1 49.5C484.8 49.4 484.4 49.3999 484.1 49.2999C483.8 49.0999 483.5 48.9999 483.4 48.7999Z" fill="#535353"/>
    <path d="M502.6 38.1H498.8V49.4001H496.6V38.1H492.8V36.3H502.5L502.6 38.1Z" fill="#535353"/>
    <path d="M509.1 49.6001C507.2 49.6001 505.7 49.0001 504.6 47.8001C503.5 46.6001 502.9 45.0001 502.9 43.0001C502.9 40.9001 503.5 39.2001 504.6 38.0001C505.8 36.7001 507.3 36.1001 509.3 36.1001C511.1 36.1001 512.6 36.7001 513.7 37.9001C514.8 39.1001 515.4 40.7001 515.4 42.7001C515.4 44.8001 514.8 46.5001 513.7 47.8001C512.6 49.0001 511 49.6001 509.1 49.6001ZM509.2 38.0001C508 38.0001 507 38.4001 506.3 39.3001C505.5 40.2001 505.2 41.4001 505.2 42.8001C505.2 44.3001 505.6 45.4001 506.3 46.3001C507 47.2001 508 47.6001 509.2 47.6001C510.5 47.6001 511.4 47.2001 512.2 46.3001C512.9 45.5001 513.3 44.3001 513.3 42.7001C513.3 41.1001 513 39.9001 512.2 39.1001C511.4 38.4001 510.4 38.0001 509.2 38.0001Z" fill="#535353"/>
    <path d="M528 49.4001H525.5L523.4 45.9001C523.2 45.6001 523 45.3 522.8 45.1C522.6 44.9 522.4 44.7 522.3 44.5C522.1 44.4 521.9 44.2001 521.7 44.2001C521.5 44.1001 521.2 44.1 521 44.1H520V49.4001H517.8V36.3H522.1C522.7 36.3 523.3 36.4 523.8 36.5C524.3 36.6 524.8 36.9001 525.2 37.2001C525.6 37.5001 525.9 37.9 526.1 38.3C526.3 38.7 526.4 39.3 526.4 39.8C526.4 40.3 526.3 40.7 526.2 41.1C526.1 41.5 525.9 41.8 525.6 42.1C525.3 42.4 525 42.7001 524.7 42.9001C524.3 43.1001 523.9 43.3001 523.5 43.4001C523.7 43.5001 523.9 43.7 524.1 43.8C524.3 44 524.4 44.1 524.6 44.3C524.8 44.5 524.9 44.7001 525.1 44.9001C525.3 45.1001 525.4 45.4001 525.6 45.7001L528 49.4001ZM520 38V42.3H521.8C522.1 42.3 522.4 42.2 522.7 42.1C523 42 523.2 41.8001 523.4 41.7001C523.6 41.5001 523.8 41.3 523.9 41C524 40.7 524.1 40.4 524.1 40.1C524.1 39.5 523.9 39 523.5 38.6C523.1 38.2 522.5 38.1 521.8 38.1H520V38Z" fill="#535353"/>
    <path d="M536.8 49.4001H529.4V36.3H536.5V38.1H531.6V41.8H536.1V43.6H531.6V47.5H536.8V49.4001Z" fill="#535353"/>
    <path d="M1265 7H853.5V587H1265V7Z" fill="#F4F4F5"/>
    <path d="M988.9 41.5999V46.4H986.7V33.2H990.7C992.2 33.2 993.4 33.4999 994.2 34.2999C995 34.9999 995.4 35.9999 995.4 37.2999C995.4 38.5999 995 39.6 994.1 40.4C993.2 41.2 992.1 41.5999 990.6 41.5999H988.9ZM988.9 35V39.7999H990.3C991.2 39.7999 991.9 39.5999 992.4 39.0999C992.9 38.6999 993.1 38.0999 993.1 37.2999C993.1 35.7999 992.2 35 990.4 35H988.9V35Z" fill="#535353"/>
    <path d="M1007.8 46.2999H1005.3L1003.2 42.7999C1003 42.4999 1002.8 42.2 1002.6 42C1002.4 41.8 1002.2 41.6 1002.1 41.4C1001.9 41.3 1001.7 41.0999 1001.5 41.0999C1001.3 40.9999 1001 41 1000.8 41H999.9V46.2999H997.7V33.2H1002C1002.6 33.2 1003.2 33.3 1003.7 33.4C1004.2 33.5 1004.7 33.8 1005.1 34.1C1005.5 34.4 1005.8 34.8 1006 35.2C1006.2 35.6 1006.3 36.2 1006.3 36.7C1006.3 37.2 1006.2 37.6 1006.1 38C1006 38.4 1005.8 38.7 1005.5 39C1005.2 39.3 1004.9 39.5999 1004.6 39.7999C1004.2 39.9999 1003.8 40.1999 1003.4 40.2999C1003.6 40.3999 1003.9 40.6 1004 40.7C1004.2 40.9 1004.4 41 1004.5 41.2C1004.7 41.4 1004.8 41.5999 1005 41.7999C1005.2 41.9999 1005.3 42.2999 1005.5 42.5999L1007.8 46.2999ZM999.8 35V39.2999H1001.6C1001.9 39.2999 1002.2 39.1999 1002.5 39.0999C1002.8 38.9999 1003 38.8 1003.2 38.7C1003.4 38.5 1003.6 38.3 1003.7 38C1003.8 37.7 1003.9 37.4 1003.9 37.1C1003.9 36.5 1003.7 36 1003.3 35.6C1002.9 35.2 1002.3 35.1 1001.6 35.1H999.8V35Z" fill="#535353"/>
    <path d="M1016.7 46.2999H1009.3V33.2H1016.4V35H1011.5V38.7H1016V40.5H1011.5V44.4H1016.7V46.2999Z" fill="#535353"/>
    <path d="M1021.2 41.5999V46.4H1019V33.2H1023C1024.5 33.2 1025.7 33.4999 1026.5 34.2999C1027.3 34.9999 1027.8 35.9999 1027.8 37.2999C1027.8 38.5999 1027.4 39.6 1026.5 40.4C1025.6 41.2 1024.5 41.5999 1023 41.5999H1021.2ZM1021.2 35V39.7999H1022.6C1023.5 39.7999 1024.2 39.5999 1024.7 39.0999C1025.2 38.6999 1025.4 38.0999 1025.4 37.2999C1025.4 35.7999 1024.5 35 1022.7 35H1021.2V35Z" fill="#535353"/>
    <path d="M1045.9 46.2999H1043.5L1042.3 43H1037.1L1036 46.2999H1033.6L1038.5 33.2H1040.9L1045.9 46.2999ZM1041.7 41.2L1039.9 36C1039.8 35.8 1039.8 35.6 1039.7 35.2C1039.6 35.5 1039.6 35.8 1039.5 36L1037.7 41.2H1041.7Z" fill="#535353"/>
    <path d="M1058.8 46.2999H1056.4L1050.1 36.7C1049.9 36.5 1049.8 36.2 1049.7 35.9H1049.6C1049.7 36.2 1049.7 36.8 1049.7 37.7V46.2999H1047.6V33.2H1050.1L1056.2 42.5999C1056.5 42.9999 1056.6 43.3 1056.7 43.4C1056.6 43.1 1056.6 42.4999 1056.6 41.5999V33.2H1058.7V46.2999H1058.8V46.2999Z" fill="#535353"/>
    <path d="M1062 46.2999V33.2H1065.8C1070.6 33.2 1073.1 35.2999 1073.1 39.5999C1073.1 41.5999 1072.4 43.2 1071.1 44.5C1069.8 45.7 1068 46.2999 1065.7 46.2999H1062ZM1064.2 35.1V44.5H1065.9C1067.4 44.5 1068.6 44.1 1069.5 43.2C1070.3 42.4 1070.8 41.1999 1070.8 39.5999C1070.8 36.4999 1069.2 35 1066 35H1064.2V35.1Z" fill="#535353"/>
    <path d="M1089 35.1H1085.2V46.4001H1083V35.1H1079.2V33.3H1088.9V35.1H1089Z" fill="#535353"/>
    <path d="M1101.1 46.2999H1098.6L1096.5 42.7999C1096.3 42.4999 1096.1 42.2 1095.9 42C1095.7 41.8 1095.5 41.6 1095.4 41.4C1095.2 41.3 1095 41.0999 1094.8 41.0999C1094.6 40.9999 1094.3 41 1094.1 41H1093.2V46.2999H1091V33.2H1095.3C1095.9 33.2 1096.5 33.3 1097 33.4C1097.5 33.5 1098 33.8 1098.4 34.1C1098.8 34.4 1099.1 34.8 1099.3 35.2C1099.5 35.6 1099.6 36.2 1099.6 36.7C1099.6 37.2 1099.5 37.6 1099.4 38C1099.3 38.4 1099.1 38.7 1098.8 39C1098.5 39.3 1098.2 39.5999 1097.9 39.7999C1097.5 39.9999 1097.1 40.1999 1096.7 40.2999C1096.9 40.3999 1097.2 40.6 1097.3 40.7C1097.5 40.9 1097.6 41 1097.8 41.2C1098 41.4 1098.1 41.5999 1098.3 41.7999C1098.5 41.9999 1098.6 42.2999 1098.8 42.5999L1101.1 46.2999ZM1093.1 35V39.2999H1094.9C1095.2 39.2999 1095.5 39.1999 1095.8 39.0999C1096.1 38.9999 1096.3 38.8 1096.5 38.7C1096.7 38.5 1096.9 38.3 1097 38C1097.1 37.7 1097.2 37.4 1097.2 37.1C1097.2 36.5 1097 36 1096.6 35.6C1096.2 35.2 1095.6 35.1 1094.9 35.1H1093.1V35V35Z" fill="#535353"/>
    <path d="M1113.3 46.2999H1110.9L1109.7 43H1104.5L1103.4 46.2999H1101L1105.9 33.2H1108.3L1113.3 46.2999ZM1109.2 41.2L1107.4 36C1107.3 35.8 1107.3 35.6 1107.2 35.2C1107.1 35.5 1107.1 35.8 1107 36L1105.2 41.2H1109.2Z" fill="#535353"/>
    <path d="M1117.4 46.2999H1115.2V33.2H1117.4V46.2999Z" fill="#535353"/>
    <path d="M1131.7 46.2999H1129.3L1123 36.7C1122.8 36.5 1122.7 36.2 1122.6 35.9H1122.5C1122.6 36.2 1122.6 36.8 1122.6 37.7V46.2999H1120.5V33.2H1123L1129 42.5999C1129.3 42.9999 1129.4 43.3 1129.5 43.4C1129.4 43.1 1129.4 42.4999 1129.4 41.5999V33.2H1131.5V46.2999H1131.7V46.2999Z" fill="#535353"/>
    <path d="M392.9 7H179V587H393V7H392.9Z" fill="#F4F4F5"/>
    <path d="M843.6 7H627V587H843.6V7Z" fill="#F4F4F5"/>
    <path d="M1161.1 249.8H1184C1185 249.8 1186.1 250.2 1186.8 251C1187.5 251.8 1188 252.8 1188 253.8V303.3C1188 303.8 1187.9 304.3 1187.7 304.8C1187.5 305.3 1187.2 305.7 1186.8 306.1C1186.4 306.5 1186 306.8 1185.5 307C1185 307.2 1184.5 307.3 1184 307.3H1161.1C1160.1 307.3 1159.1 306.9 1158.3 306.1C1157.6 305.3 1157.1 304.3 1157.1 303.3V253.8C1157.1 252.7 1157.5 251.7 1158.3 251C1159.1 250.3 1160.1 249.8 1161.1 249.8Z" fill="#454C51"/>
    <path d="M1175.9 301.8H1169.1V304.1H1175.9V301.8Z" fill="#515659"/>
    <path d="M1172.5 255.4C1173.1 255.4 1173.6 254.9 1173.6 254.2C1173.6 253.6 1173.1 253 1172.5 253C1171.9 253 1171.4 253.5 1171.4 254.2C1171.4 254.8 1171.9 255.4 1172.5 255.4Z" fill="#515659"/>
    <path d="M1185.7 258.5H1159.4V298.6H1185.7V258.5Z" fill="white"/>
    <path d="M1183.7 260.6H1161.4V264.1H1183.7V260.6Z" fill="#E6625C"/>
    <path d="M1183.7 293H1161.4V294.1H1183.7V293Z" fill="#E8E8E8"/>
    <path d="M1183.7 295.5H1161.4V296.6H1183.7V295.5Z" fill="#E8E8E8"/>
    <path d="M1183.7 271.6H1161.4V289.3H1183.7V271.6Z" fill="#B6E4FA"/>
    <path d="M1183.7 265.4H1161.4V272.5H1183.7V265.4Z" fill="#D4D6D8"/>
    <path fill-rule="evenodd" clip-rule="evenodd" d="M1060.8 167.4C1063.2 177.2 1057.1 187.1 1047.1 189.4C1037.1 191.8 1027.1 185.7 1024.7 175.9C1022.3 166.1 1028.4 156.2 1038.4 153.9C1048.3 151.5 1058.3 157.5 1060.7 167.2C1060.8 167.3 1060.8 167.3 1060.8 167.4Z" fill="#59B3D8"/>
    <path fill-rule="evenodd" clip-rule="evenodd" d="M1040.2 179C1040.2 176.3 1038 174.2 1035.3 174.2H1034.5C1035.1 171.6 1033.5 169 1030.9 168.4C1030.5 168.3 1030.1 168.3 1029.7 168.3H1024.6C1023.5 173.9 1025.2 179.7 1029.1 183.9H1035.3C1038 183.8 1040.2 181.7 1040.2 179Z" fill="#B7DEEC"/>
    <path fill-rule="evenodd" clip-rule="evenodd" d="M1046.3 158.9C1046.3 159.2 1046.3 159.5 1046.4 159.7H1044.3C1041.5 159.7 1039.2 162 1039.2 164.7C1039.2 167.5 1041.5 169.7 1044.3 169.7H1061.3C1060.7 163.7 1057.1 158.3 1051.7 155.5H1049.7C1047.8 155.6 1046.3 157.1 1046.3 158.9Z" fill="#B7DEEC"/>
    <path fill-rule="evenodd" clip-rule="evenodd" d="M1061.2 173.6H1051.1C1048.8 173.6 1046.9 175.4 1046.9 177.7C1046.9 178.4 1047.1 179.1 1047.4 179.7C1045.2 180.4 1044 182.7 1044.7 184.8C1045.2 186.5 1046.9 187.7 1048.7 187.7H1051.5C1056.9 184.8 1060.6 179.5 1061.2 173.6Z" fill="#B7DEEC"/>
    <path fill-rule="evenodd" clip-rule="evenodd" d="M1022 159.5C1021.7 159.5 1021.4 159.3 1021.4 158.9C1021.4 155.4 1018.5 152.5 1014.9 152.5C1014.6 152.5 1014.3 152.2 1014.3 151.9C1014.3 151.6 1014.6 151.3 1014.9 151.3C1018.5 151.3 1021.4 148.5 1021.4 144.9C1021.4 144.6 1021.7 144.4 1022 144.4C1022.3 144.4 1022.5 144.6 1022.5 144.9C1022.5 148.4 1025.4 151.3 1029 151.3C1029.3 151.3 1029.6 151.6 1029.6 151.9C1029.6 152.2 1029.3 152.5 1029 152.5C1025.4 152.5 1022.5 155.3 1022.5 158.9C1022.6 159.3 1022.4 159.5 1022 159.5Z" fill="#B7D333"/>
    <path fill-rule="evenodd" clip-rule="evenodd" d="M1062.1 195.4C1061.9 195.4 1061.8 195.2 1061.8 195.1C1061.8 193 1060 191.3 1057.9 191.3C1057.7 191.3 1057.6 191.2 1057.6 191C1057.6 190.8 1057.8 190.7 1057.9 190.7C1060 190.7 1061.8 189 1061.8 186.9C1061.8 186.7 1062 186.6 1062.1 186.6C1062.3 186.6 1062.4 186.8 1062.4 186.9C1062.4 189 1064.1 190.7 1066.3 190.7C1066.5 190.7 1066.6 190.8 1066.6 191C1066.6 191.2 1066.4 191.3 1066.3 191.3C1064.2 191.3 1062.4 193 1062.4 195.1C1062.4 195.2 1062.3 195.4 1062.1 195.4Z" fill="#1F72B9"/>
    <path fill-rule="evenodd" clip-rule="evenodd" d="M1069.8 153C1068 150.1 1063.6 149.5 1056.9 151.1C1054.8 151.6 1052.8 152.3 1050.8 153C1052.1 153.6 1053.3 154.4 1054.4 155.3C1055.5 154.9 1056.6 154.6 1057.7 154.4C1059.5 153.9 1061.3 153.7 1063.1 153.6C1065.3 153.6 1066.5 154.1 1066.9 154.8C1067.6 155.9 1067 158.7 1063.1 163C1062.4 163.8 1061.6 164.6 1060.8 165.4C1056.6 169.4 1051.9 173 1046.8 175.9C1041.8 179 1036.5 181.5 1030.9 183.4C1024.2 185.6 1019.6 185.5 1018.6 183.9C1017.6 182.2 1019.6 178.2 1024.6 173.3C1024.3 171.9 1024.2 170.5 1024.2 169C1016.2 176.1 1013.6 182.3 1015.7 185.6C1016.8 187.3 1019.1 188.3 1022.6 188.3C1026.7 188.1 1030.7 187.3 1034.5 185.7C1039.4 183.8 1044.1 181.5 1048.6 178.7C1053.1 176 1057.4 172.9 1061.3 169.5C1062.8 168.1 1064.3 166.7 1065.7 165.2C1070.2 160 1071.6 155.8 1069.8 153Z" fill="black"/>
    <path fill-rule="evenodd" clip-rule="evenodd" d="M294.9 167.4C294.9 167.9 294.6 168.3 294 168.3H287.2C286.7 168.3 286.3 168 286.3 167.4V162.4C286.3 161.9 286.7 161.5 287.2 161.5H294C294.5 161.5 294.9 161.8 294.9 162.4V167.4Z" fill="#B8D433"/>
    <path fill-rule="evenodd" clip-rule="evenodd" d="M307.1 172.6C307.1 173.1 306.8 173.5 306.2 173.5H299.4C298.9 173.5 298.5 173.2 298.5 172.6V167.6C298.5 167.1 298.9 166.7 299.4 166.7H306.2C306.7 166.7 307.1 167 307.1 167.6V172.6Z" fill="#B8D433"/>
    <path fill-rule="evenodd" clip-rule="evenodd" d="M294.9 177.7C294.9 178.2 294.6 178.6 294 178.6H287.2C286.7 178.6 286.3 178.3 286.3 177.7V172.7C286.3 172.2 286.7 171.8 287.2 171.8H294C294.5 171.8 294.9 172.1 294.9 172.7V177.7Z" fill="#B8D433"/>
    <path fill-rule="evenodd" clip-rule="evenodd" d="M282.8 162.3C282.8 162.8 282.5 163.2 281.9 163.2H274.9C274.4 163.2 274 162.9 274 162.3V157.2C274 156.7 274.3 156.3 274.9 156.3H281.7C282.4 156.3 282.7 156.6 282.7 157.2V162.3H282.8Z" fill="#B8D433"/>
    <path fill-rule="evenodd" clip-rule="evenodd" d="M313.2 144.3H308H269.6H266.3H264.6C264.1 144.3 263.7 144.6 263.7 145.2V155.5C263.7 156 264 156.4 264.6 156.4H269.8C270.3 156.4 270.7 156.1 270.7 155.5V151.2H307.2V155.5C307.2 156 307.6 156.4 308.2 156.4H313.2C313.7 156.4 314.1 156.1 314.1 155.5V150.4V145.3C314.1 144.6 313.7 144.3 313.2 144.3Z" fill="#2172B9"/>
    <path fill-rule="evenodd" clip-rule="evenodd" d="M313.2 183.9H308.2C307.7 183.9 307.3 184.2 307.3 184.8V188.9H270.6V184.6C270.6 184.1 270.3 183.7 269.6 183.7H264.6C264.1 183.7 263.7 184 263.7 184.7V194.8C263.7 195.3 264 195.7 264.6 195.7H266.3H269.8H308.2H313.1H313.3C313.8 195.7 314.2 195.4 314.2 194.8V184.7C314.1 184.2 313.7 183.9 313.2 183.9Z" fill="#2172B9"/>
    <path fill-rule="evenodd" clip-rule="evenodd" d="M282.8 172.6C282.8 173.1 282.5 173.5 281.9 173.5H274.9C274.4 173.5 274 173.2 274 172.6V167.5C274 167 274.3 166.6 274.9 166.6H281.7C282.4 166.6 282.7 166.9 282.7 167.5V172.6H282.8Z" fill="#B8D433"/>
    <path fill-rule="evenodd" clip-rule="evenodd" d="M282.8 182.8C282.8 183.3 282.5 183.7 281.9 183.7H274.9C274.4 183.7 274 183.4 274 182.8V177.7C274 177.2 274.3 176.8 274.9 176.8H281.7C282.4 176.8 282.7 177.1 282.7 177.7V182.8H282.8Z" fill="#B8D433"/>
    <path fill-rule="evenodd" clip-rule="evenodd" d="M509.6 340.4H506.5L504.7 342.4H509.6V357.1H491.4L487.6 361.3H485.2C484 361.3 483 360.3 483 359V359.2C483 360.3 483.9 361.3 485 361.3H536.2C537.3 361.3 538.3 360.4 538.3 359.2V320.4H524.5L509.6 337V340.4Z" fill="#9F9FA0"/>
    <path fill-rule="evenodd" clip-rule="evenodd" d="M538.3 321.7V315.2C538.3 314.1 537.4 313.1 536.2 313.1H531.2L523.4 321.7H538.3Z" fill="#7B7B7B"/>
    <path fill-rule="evenodd" clip-rule="evenodd" d="M485.2 313.1H485C483.9 313.1 483 314.1 483 315.2V315.3C483 314.1 484 313.1 485.2 313.1Z" fill="#7B7B7B"/>
    <path fill-rule="evenodd" clip-rule="evenodd" d="M509.6 337L506.5 340.4H509.6V337Z" fill="#1F72B9"/>
    <path fill-rule="evenodd" clip-rule="evenodd" d="M509.6 342.4H504.7L491.4 357.1H509.6V342.4Z" fill="#1F72B9"/>
    <path fill-rule="evenodd" clip-rule="evenodd" d="M483 321.7V321.8H523.3L523.4 321.7H483Z" fill="white"/>
    <path fill-rule="evenodd" clip-rule="evenodd" d="M483 323.6V327.3V359C483 360.2 484 361.3 485.2 361.3H487.6L491.4 357.1H487.1V342.4H504.7L506.5 340.4H487V325.7H509.6V337L523.3 321.8H483V323.6Z" fill="#9F9FA0"/>
    <path fill-rule="evenodd" clip-rule="evenodd" d="M483 323.6V327.3V359C483 360.2 484 361.3 485.2 361.3H487.6L491.4 357.1H487.1V342.4H504.7L506.5 340.4H487V325.7H509.6V337L524.7 320.3L483 320V323.6Z" fill="#BABBBC"/>
    <path fill-rule="evenodd" clip-rule="evenodd" d="M531.2 313.1H485.2C484 313.1 483 314.1 483 315.4V321.7H523.4L531.2 313.1Z" fill="#7B7B7B"/>
    <path fill-rule="evenodd" clip-rule="evenodd" d="M531.2 313.1H485.2C484 313.1 483 314.1 483 315.4V321.7H523.4L531.2 313.1Z" fill="#9E9D9E"/>
    <path fill-rule="evenodd" clip-rule="evenodd" d="M509.6 325.7H487V340.4H506.5L509.6 337V325.7Z" fill="#1F72B9"/>
    <path fill-rule="evenodd" clip-rule="evenodd" d="M509.6 325.7H487V340.4H506.5L509.6 337V325.7Z" fill="#479AD1"/>
    <path fill-rule="evenodd" clip-rule="evenodd" d="M487.1 342.4V357.1H491.4L504.7 342.4H487.1Z" fill="#1F72B9"/>
    <path fill-rule="evenodd" clip-rule="evenodd" d="M487.1 342.4V357.1H491.4L504.7 342.4H487.1Z" fill="#479AD1"/>
    <path fill-rule="evenodd" clip-rule="evenodd" d="M511.6 340.4H534V325.7H511.6V340.4Z" fill="white"/>
    <path fill-rule="evenodd" clip-rule="evenodd" d="M511.6 357.1H534V342.4H511.6V357.1Z" fill="#1F72B9"/>
    <path d="M753.9 179.1L755.5 175L762.7 172.5V166.7L761.9 166.4L755.5 164.5L753.9 160.4L757.2 153.6L753.1 149.5L752.3 149.9L746.4 152.9L742.2 151.2L739.6 144.2H733.7L733.4 145L731.4 151.2L727.3 152.8L720.4 149.8L716.2 153.9L716.6 154.7L718.4 158.1C721.7 156.2 725.1 155.5 728.7 155.5C733.8 155.8 738.5 157.6 742.2 161.1C743 161.8 743.8 162.3 744.7 163.2C745.1 163.6 745.5 164.3 745.7 164.7C748.2 169.1 747.1 174.6 743.1 178C740.1 180.5 735.9 180.9 732.8 179.5C732.4 179.2 732.1 179.2 732 179.1C731.2 178.7 730.4 178 729.8 177.5C729.5 177.5 729.4 177.2 729 177.2C728.2 177.2 727.4 177.6 726.8 178.3L726.5 178.6C724 181.1 721.3 183 718.1 183.9L716.9 186.4L720.8 190.4L721.1 190.7L721.9 190.3L727.8 187.3L731.9 188.9L734.1 195.9H740L740.3 195.1L742.4 188.9L746.5 187.3L753.4 190.3L757.3 185.9L757 185L753.9 179.1Z" fill="#7B7B7B"/>
    <path d="M718.8 170.8C714.3 175.6 707.1 175.6 703 170.5C702.6 169.8 701.6 169.8 701.2 170.5C700.9 170.8 700.8 171.2 700.8 171.6C700.8 172 701.1 172.4 701.2 172.7C706.4 178.7 715.2 178.8 720.8 173C725.3 168.5 732.2 168.4 736.5 173.4C737.2 174.1 737.9 174.1 738.3 173.4C738.6 173.1 738.7 172.7 738.7 172.3C738.7 171.9 738.4 171.5 738.3 171.2C733.1 165.2 724.3 165.1 718.8 170.8Z" fill="#4BC8EE"/>
    <path d="M728.6 173.3C726.1 173.3 724.1 174.1 722.3 176L722 176.3L721.7 176.6C718.7 179.9 714.5 181.5 710.3 181.4C706 181.4 702.2 179.3 699 176.1C698.3 175.4 697.6 175.4 697.2 176.1C697.1 176.1 697.1 176.4 697.1 176.8C697.1 177.2 697.5 177.9 697.8 178C701.2 182 705.9 184.2 710.9 184.2C715.7 184.5 720.5 182.3 724.1 178.4L724.4 178.1L724.7 177.8C725.9 176.6 727.3 175.9 729 175.9C730.6 175.9 732 176.7 733.3 178C734 178.7 734.7 178.7 735.1 178C735.4 177.7 735.5 177.3 735.5 176.9C735.5 176.5 735.2 176.1 735.1 175.8C733.3 174.4 731.1 173.3 728.6 173.3Z" fill="#27A9E1"/>
    <path d="M717.6 167.9C720.6 164.6 724.8 163 729 163C733.2 163 737.1 165.1 740 168.3C740.7 169 741.4 169 741.8 168.3C742.1 168 742.2 167.6 742.2 167.2C742.2 166.8 741.9 166.4 741.8 166.1C738.4 162.1 733.7 159.9 728.7 159.9C723.7 159.9 719.1 161.8 715.5 165.7L715.2 166L714.9 166.3C713.7 167.5 712.3 168.2 710.6 168.2C708.9 168.2 707.6 167.4 706.3 166.1C705.6 165.4 704.9 165.4 704.5 166.1C704.2 166.4 704.1 166.8 704.1 167.2C704.1 167.6 704.4 168 704.5 168.3C706.1 170.2 708.4 171.2 710.7 171.2C713.2 171.2 715.2 170.4 717 168.5L717.3 168.2L717.6 167.9Z" fill="#86D4ED"/>
    <path opacity="0.2" d="M729.8 179.3C729.5 179.3 729.4 179 729 179C728.2 179 727.4 179.4 726.8 180.1L726.5 180.4C724 182.9 721.3 184.8 718.1 185.7L716.9 188.2L719 190.3L729.8 179.3Z" fill="#F2F1F1"/>
    <path opacity="0.2" d="M718.7 160.3C722 158.4 725.4 157.7 729 157.7C734.1 158 738.8 159.8 742.5 163.3C743.2 163.8 743.7 164.2 744.3 164.8L755.2 153.8L753 151.5L752.2 151.9L746.3 154.9L742.2 153.3L739.6 146.3H733.7L733.4 147.1L731.4 153.3L727.3 154.9L720.4 151.9L716.2 156L716.6 156.8L718.7 160.3Z" fill="#F2F1F1"/>
    <path d="M1196 524.3H1194.8V521.8H1196C1197.3 521.8 1198.5 521.3 1199.4 520.4C1200.3 519.5 1200.8 518.3 1200.8 517.1V492.1C1200.8 490.9 1200.3 489.7 1199.4 488.8C1198.5 487.9 1197.3 487.4 1196 487.4H1149C1147.7 487.4 1146.5 487.9 1145.6 488.8C1144.7 489.7 1144.2 490.9 1144.2 492.1V517.1C1144.2 518.4 1144.7 519.5 1145.6 520.4C1146.5 521.3 1147.7 521.8 1149 521.8H1150.2V524.3H1149C1147.1 524.3 1145.2 523.5 1143.9 522.2C1142.5 520.9 1141.8 519 1141.8 517.1V492.1C1141.8 490.2 1142.6 488.4 1143.9 487C1145.2 485.7 1147.1 484.9 1149 484.9H1196C1197.9 484.9 1199.8 485.7 1201.1 487C1202.5 488.3 1203.2 490.2 1203.2 492.1V517.1C1203.2 519 1202.4 520.8 1201.1 522.2C1199.8 523.5 1198 524.3 1196 524.3Z" fill="#EBBC1E"/>
    <path d="M1156.7 516.1C1157.1 516.1 1157.6 516.2 1158 516.4C1158.4 516.6 1158.8 516.8 1159.1 517.1C1159.4 517.4 1159.7 517.8 1159.8 518.2C1160 518.6 1160.1 519 1160.1 519.5V527.2C1160.1 528.1 1159.8 528.9 1159.1 529.5C1158.5 530.1 1157.6 530.5 1156.7 530.5C1156.2 530.5 1155.8 530.4 1155.4 530.2C1155 530 1154.6 529.8 1154.3 529.5C1154 529.2 1153.7 528.8 1153.6 528.4C1153.4 528 1153.3 527.6 1153.3 527.1V519.4C1153.3 518.5 1153.6 517.7 1154.3 517.1C1154.9 516.4 1155.8 516.1 1156.7 516.1Z" fill="#EBBC1E"/>
    <path d="M1167.2 530.4C1166.3 530.4 1165.4 530 1164.8 529.4C1164.2 528.8 1163.8 527.9 1163.8 527.1V507.4C1163.8 506.5 1164.1 505.7 1164.8 505.1C1165.4 504.5 1166.3 504.1 1167.2 504.1C1168.1 504.1 1169 504.4 1169.6 505.1C1170.2 505.7 1170.6 506.6 1170.6 507.4V527.1C1170.6 528 1170.3 528.8 1169.6 529.4C1169 530 1168.1 530.4 1167.2 530.4Z" fill="#EBBC1E"/>
    <path d="M1188.4 530.3C1187.5 530.3 1186.6 530 1186 529.3C1185.4 528.7 1185 527.8 1185 527V499.1C1185 498.2 1185.4 497.4 1186 496.8C1186.6 496.2 1187.5 495.8 1188.4 495.8C1189.3 495.8 1190.2 496.1 1190.8 496.8C1191.4 497.4 1191.8 498.3 1191.8 499.1V527C1191.8 527.9 1191.4 528.7 1190.8 529.3C1190.2 529.9 1189.3 530.3 1188.4 530.3Z" fill="#EBBC1E"/>
    <path d="M1177.8 530.4C1176.9 530.4 1176 530 1175.4 529.4C1174.8 528.8 1174.4 527.9 1174.4 527V512.4C1174.4 511.5 1174.8 510.7 1175.4 510.1C1176 509.5 1176.9 509.1 1177.8 509.1C1178.7 509.1 1179.6 509.4 1180.2 510.1C1180.8 510.7 1181.2 511.6 1181.2 512.4V527C1181.2 527.9 1180.8 528.7 1180.2 529.4C1179.6 530 1178.7 530.4 1177.8 530.4Z" fill="#EBBC1E"/>
    <path fill-rule="evenodd" clip-rule="evenodd" d="M213.7 168.8L201.6 161.8V167.1H125.5V169.8H201.6V175.8L213.7 168.8Z" fill="#969696"/>
    <path fill-rule="evenodd" clip-rule="evenodd" d="M510.9 279.4L517.9 267.3H511.9V168.5H509.2V267.3H503.8L510.9 279.4Z" fill="#969696"/>
    <path d="M894.4 510.3V169.3H891.7V510.3H894.4Z" fill="#969696"/>
    <path fill-rule="evenodd" clip-rule="evenodd" d="M680.5 168.8L668.4 161.8V167.1H358.2V169.8H668.4V175.8L680.5 168.8Z" fill="#969696"/>
    <path fill-rule="evenodd" clip-rule="evenodd" d="M981.5 168.8L969.4 161.8V167.1H784.8V169.8H969.3V175.8L981.5 168.8Z" fill="#969696"/>
    <path fill-rule="evenodd" clip-rule="evenodd" d="M1088.4 510.6L1076.3 503.6V508.9H891.7V511.6H1076.2V517.6L1088.4 510.6Z" fill="#969696"/>
    <path fill-rule="evenodd" clip-rule="evenodd" d="M981.5 383.4L969.4 376.4V381.8H891.9V384.5H969.4V390.5L981.5 383.4Z" fill="#969696"/>
    <path d="M61.5 186.9C70.4 186.9 77.7 179.7 77.7 170.9C77.7 162 70.5 154.9 61.5 154.9C52.6 154.9 45.3 162.1 45.3 170.9C45.4 179.7 52.6 186.9 61.5 186.9Z" fill="#2E76BC"/>
    <path d="M44.5 159.9C47.8 159.9 50.5 157.3 50.5 154C50.5 150.7 47.8 148.1 44.5 148.1C41.2 148.1 38.5 150.7 38.5 154C38.5 157.3 41.2 159.9 44.5 159.9Z" fill="#2E76BC"/>
    <path d="M55.6 152.3C58.9 152.3 61.6 149.7 61.6 146.4C61.6 143.1 58.9 140.5 55.6 140.5C52.3 140.5 49.6 143.1 49.6 146.4C49.6 149.6 52.3 152.3 55.6 152.3Z" fill="#2E76BC"/>
    <path d="M69.2 152.3C72.5 152.3 75.2 149.7 75.2 146.4C75.2 143.1 72.5 140.5 69.2 140.5C65.9 140.5 63.2 143.1 63.2 146.4C63.2 149.6 65.9 152.3 69.2 152.3Z" fill="#74CFEB"/>
    <path d="M83.7 170C87 170 89.7 167.4 89.7 164.1C89.7 160.8 87 158.2 83.7 158.2C80.4 158.2 77.7 160.8 77.7 164.1C77.7 167.3 80.4 170 83.7 170Z" fill="#2E76BC"/>
    <path d="M83.7 185.2C87 185.2 89.7 182.6 89.7 179.3C89.7 176 87 173.4 83.7 173.4C80.4 173.4 77.7 176 77.7 179.3C77.7 182.5 80.4 185.2 83.7 185.2Z" fill="#2E76BC"/>
    <path d="M67.5 199.5C70.8 199.5 73.5 196.9 73.5 193.6C73.5 190.3 70.8 187.7 67.5 187.7C64.2 187.7 61.5 190.3 61.5 193.6C61.5 196.9 64.2 199.5 67.5 199.5Z" fill="#74CFEB"/>
    <path d="M43.7 192.8C47 192.8 49.7 190.2 49.7 186.9C49.7 183.6 47 181 43.7 181C40.4 181 37.7 183.6 37.7 186.9C37.7 190.2 40.4 192.8 43.7 192.8Z" fill="#74CFEB"/>
    <path d="M1042.5 365.1C1031.4 365.1 1022.4 362 1022.4 357.9V396.2C1022.4 400.1 1031.2 403.3 1042.2 403.4H1042.5C1053.6 403.4 1062.6 400.3 1062.6 396.2V357.9C1062.6 361.9 1053.6 365.1 1042.5 365.1Z" fill="url(#paint0_linear)"/>
    <path d="M1062.6 357.9C1062.6 361.9 1053.6 365.1 1042.5 365.1C1031.4 365.1 1022.4 362 1022.4 357.9C1022.4 353.8 1031.4 350.7 1042.5 350.7C1053.6 350.7 1062.6 353.8 1062.6 357.9Z" fill="#E8E8E8"/>
    <path d="M1057.9 357.3C1057.9 359.8 1051 361.9 1042.5 361.9C1034 361.9 1027.1 359.9 1027.1 357.3C1027.1 354.8 1034 352.7 1042.5 352.7C1051 352.8 1057.9 354.8 1057.9 357.3Z" fill="#74CFEB"/>
    <path d="M1042.5 358.5C1038.4 358.4 1034.2 359 1030.3 360.3C1034.2 361.6 1038.4 362.1 1042.5 362C1046.6 362.1 1050.8 361.5 1054.7 360.2C1050.7 358.9 1046.6 358.4 1042.5 358.5Z" fill="#1B8AB3"/>
    <path d="M1054.7 384.5V374H1051.9V386.8H1059.6V384.5H1054.7ZM1032.4 379.3C1031.8 379.1 1031.3 378.7 1030.8 378.3C1030.7 378.2 1030.6 378 1030.5 377.8C1030.4 377.6 1030.4 377.4 1030.4 377.3C1030.4 377.1 1030.4 376.9 1030.5 376.8C1030.6 376.6 1030.7 376.5 1030.9 376.4C1031.3 376.1 1031.7 376 1032.2 376C1033.3 376 1034.4 376.3 1035.3 376.9V374.2C1034.3 373.8 1033.2 373.7 1032.2 373.7C1031 373.6 1029.8 374 1028.8 374.8C1028.4 375.1 1028 375.5 1027.8 376C1027.6 376.5 1027.5 377 1027.5 377.5C1027.5 379.1 1028.5 380.3 1030.6 381.3C1031.3 381.6 1031.9 382 1032.5 382.4C1032.6 382.5 1032.8 382.7 1032.8 382.8C1032.9 383 1032.9 383.2 1032.9 383.3C1032.9 383.5 1032.9 383.7 1032.8 383.8C1032.7 384 1032.6 384.1 1032.4 384.2C1032 384.4 1031.5 384.6 1031 384.5C1029.7 384.5 1028.5 384 1027.6 383.2V386.1C1028.6 386.6 1029.8 386.9 1030.9 386.8C1032.2 386.9 1033.5 386.5 1034.6 385.8C1035 385.4 1035.3 385 1035.4 384.5C1035.6 384 1035.6 383.5 1035.6 383C1035.6 382.2 1035.3 381.4 1034.8 380.8C1034.2 380.4 1033.3 379.8 1032.4 379.3ZM1048.8 384.3C1049.5 383.1 1049.9 381.8 1049.8 380.4C1049.7 379.2 1049.4 378.1 1048.8 377.1C1048.3 376.1 1047.5 375.3 1046.6 374.8C1045.6 374.3 1044.6 374 1043.5 374C1042.3 374 1041.2 374.3 1040.1 374.8C1039.1 375.3 1038.3 376.1 1037.8 377.1C1037.2 378.2 1037 379.4 1037 380.6C1037 381.7 1037.3 382.7 1037.8 383.7C1038.3 384.7 1039 385.5 1040 386C1040.9 386.6 1042 386.9 1043.1 386.9L1045.8 390H1049.6L1045.8 386.6C1046.9 386.2 1048 385.4 1048.8 384.3ZM1045.6 383.5C1045.3 383.8 1044.9 384.1 1044.5 384.3C1044.1 384.5 1043.6 384.6 1043.2 384.6C1042.7 384.6 1042.3 384.5 1041.9 384.3C1041.5 384.1 1041.1 383.8 1040.8 383.5C1040.1 382.6 1039.8 381.5 1039.9 380.4C1039.8 379.3 1040.1 378.2 1040.8 377.3C1041.1 376.9 1041.5 376.6 1041.9 376.4C1042.3 376.2 1042.8 376.1 1043.3 376.1C1043.8 376.1 1044.2 376.2 1044.6 376.4C1045 376.6 1045.4 376.9 1045.6 377.3C1046.2 378.2 1046.5 379.3 1046.4 380.4C1046.6 381.5 1046.3 382.6 1045.6 383.5Z" fill="url(#paint1_radial)"/>
    <path d="M981.2 430H979.7L978.5 426.9H973.7L972.6 430H971.1L975.4 418.8H976.8L981.2 430ZM978.1 425.6L976.3 420.8C976.2 420.6 976.2 420.4 976.1 420C976.1 420.3 976 420.6 975.9 420.8L974.1 425.6H978.1Z" fill="#535353"/>
    <path d="M988.3 422.3L983.6 428.9H988.3V430H981.7V429.6L986.4 423.1H982.1V422H988.3V422.3Z" fill="#535353"/>
    <path d="M996.4 430H995.1V428.7C994.6 429.7 993.7 430.2 992.6 430.2C990.7 430.2 989.7 429.1 989.7 426.8V422H991V426.6C991 428.3 991.7 429.1 992.9 429.1C993.5 429.1 994 428.9 994.4 428.4C994.8 427.9 995 427.3 995 426.6V422H996.3V430H996.4Z" fill="#535353"/>
    <path d="M1003.2 423.3C1003 423.1 1002.6 423 1002.2 423C1001.6 423 1001.2 423.3 1000.8 423.8C1000.4 424.3 1000.2 425 1000.2 425.9V430H998.9V422H1000.2V423.7C1000.4 423.1 1000.7 422.7 1001 422.4C1001.4 422.1 1001.8 421.9 1002.3 421.9C1002.6 421.9 1002.9 421.9 1003.1 422L1003.2 423.3Z" fill="#535353"/>
    <path d="M1011 426.3H1005.3C1005.3 427.2 1005.6 427.9 1006 428.4C1006.5 428.9 1007.1 429.1 1007.9 429.1C1008.8 429.1 1009.6 428.8 1010.4 428.2V429.4C1009.7 429.9 1008.8 430.2 1007.6 430.2C1006.5 430.2 1005.6 429.8 1004.9 429.1C1004.2 428.4 1003.9 427.3 1003.9 426C1003.9 424.8 1004.3 423.7 1005 422.9C1005.7 422.1 1006.6 421.7 1007.6 421.7C1008.6 421.7 1009.5 422 1010 422.7C1010.6 423.4 1010.9 424.3 1010.9 425.5V426.3H1011ZM1009.7 425.2C1009.7 424.5 1009.5 423.9 1009.2 423.5C1008.8 423.1 1008.4 422.9 1007.7 422.9C1007.1 422.9 1006.6 423.1 1006.1 423.5C1005.7 423.9 1005.4 424.5 1005.3 425.2H1009.7Z" fill="#535353"/>
    <path d="M1017 429.5V428C1017.2 428.2 1017.4 428.3 1017.6 428.4C1017.8 428.5 1018.1 428.6 1018.4 428.7C1018.7 428.8 1019 428.9 1019.2 428.9C1019.5 428.9 1019.7 429 1020 429C1020.8 429 1021.4 428.9 1021.8 428.5C1022.2 428.2 1022.4 427.8 1022.4 427.2C1022.4 426.9 1022.3 426.6 1022.2 426.4C1022.1 426.2 1021.9 426 1021.6 425.8C1021.4 425.6 1021.1 425.4 1020.8 425.3C1020.5 425.1 1020.1 424.9 1019.8 424.8C1019.4 424.6 1019 424.4 1018.7 424.2C1018.4 424 1018.1 423.8 1017.8 423.5C1017.5 423.3 1017.3 423 1017.2 422.7C1017.1 422.4 1017 422 1017 421.6C1017 421.1 1017.1 420.6 1017.3 420.3C1017.5 419.9 1017.8 419.6 1018.2 419.4C1018.6 419.2 1019 419 1019.5 418.9C1020 418.8 1020.4 418.7 1020.9 418.7C1022 418.7 1022.8 418.8 1023.3 419.1V420.6C1022.6 420.1 1021.8 419.9 1020.7 419.9C1020.4 419.9 1020.1 419.9 1019.8 420C1019.5 420.1 1019.3 420.2 1019 420.3C1018.8 420.4 1018.6 420.6 1018.5 420.8C1018.4 421 1018.3 421.3 1018.3 421.6C1018.3 421.9 1018.4 422.1 1018.5 422.3C1018.6 422.5 1018.8 422.7 1019 422.9C1019.2 423.1 1019.5 423.2 1019.8 423.4C1020.1 423.6 1020.4 423.7 1020.8 423.9C1021.2 424.1 1021.6 424.3 1021.9 424.5C1022.3 424.7 1022.6 425 1022.8 425.2C1023.1 425.5 1023.3 425.8 1023.4 426.1C1023.5 426.4 1023.6 426.8 1023.6 427.2C1023.6 427.8 1023.5 428.2 1023.3 428.6C1023.1 429 1022.8 429.3 1022.4 429.5C1022 429.7 1021.6 429.9 1021.1 430C1020.6 430.1 1020.1 430.2 1019.6 430.2C1019.4 430.2 1019.2 430.2 1018.9 430.2C1018.6 430.2 1018.4 430.1 1018.1 430.1C1017.8 430.1 1017.6 430 1017.3 429.9C1017.4 429.7 1017.2 429.6 1017 429.5Z" fill="#535353"/>
    <path d="M1030.6 430.2C1029 430.2 1027.7 429.7 1026.8 428.6C1025.8 427.6 1025.4 426.2 1025.4 424.5C1025.4 422.7 1025.9 421.2 1026.9 420.2C1027.9 419.1 1029.2 418.6 1030.9 418.6C1032.4 418.6 1033.7 419.1 1034.6 420.2C1035.6 421.2 1036 422.6 1036 424.3C1036 426.1 1035.5 427.6 1034.5 428.7C1034.3 429 1034 429.2 1033.8 429.4L1037 431.7H1034.6L1032.5 430.1C1031.9 430.1 1031.2 430.2 1030.6 430.2ZM1030.7 419.7C1029.5 419.7 1028.6 420.1 1027.8 421C1027.1 421.9 1026.7 423 1026.7 424.4C1026.7 425.8 1027.1 426.9 1027.8 427.7C1028.5 428.5 1029.5 429 1030.6 429C1031.8 429 1032.8 428.6 1033.5 427.8C1034.2 427 1034.6 425.9 1034.6 424.4C1034.6 422.9 1034.3 421.8 1033.6 421C1032.8 420.1 1031.9 419.7 1030.7 419.7Z" fill="#535353"/>
    <path d="M1044 430H1038.2V418.8H1039.5V428.8H1044V430Z" fill="#535353"/>
    <path d="M1050.1 430V418.8H1053.2C1057.2 418.8 1059.1 420.6 1059.1 424.3C1059.1 426 1058.6 427.4 1057.5 428.5C1056.4 429.6 1054.9 430.1 1053.1 430.1L1050.1 430ZM1051.4 419.9V428.8H1053.1C1054.6 428.8 1055.7 428.4 1056.5 427.6C1057.3 426.8 1057.7 425.7 1057.7 424.2C1057.7 421.3 1056.2 419.9 1053.1 419.9H1051.4Z" fill="#535353"/>
    <path d="M1066.9 430H1065.6V428.7C1065 429.7 1064.2 430.1 1063.1 430.1C1062.3 430.1 1061.7 429.9 1061.2 429.5C1060.8 429.1 1060.5 428.5 1060.5 427.8C1060.5 426.3 1061.4 425.4 1063.1 425.2L1065.5 424.9C1065.5 423.5 1065 422.9 1063.9 422.9C1062.9 422.9 1062 423.2 1061.3 423.9V422.6C1062.1 422.1 1063 421.8 1064 421.8C1065.9 421.8 1066.8 422.8 1066.8 424.8V430H1066.9V430ZM1065.6 425.9L1063.7 426.2C1063.1 426.3 1062.6 426.4 1062.4 426.6C1062.1 426.8 1061.9 427.2 1061.9 427.7C1061.9 428.1 1062 428.4 1062.3 428.7C1062.6 428.9 1063 429.1 1063.4 429.1C1064 429.1 1064.6 428.9 1065 428.4C1065.4 428 1065.6 427.4 1065.6 426.7V425.9Z" fill="#535353"/>
    <path d="M1073.1 429.9C1072.8 430.1 1072.4 430.2 1071.9 430.2C1070.5 430.2 1069.8 429.4 1069.8 427.9V423.2H1068.4V422H1069.8V420L1071.1 419.6V422H1073.1V423.1H1071.1V427.6C1071.1 428.1 1071.2 428.5 1071.4 428.8C1071.6 429 1071.9 429.1 1072.3 429.1C1072.6 429.1 1072.9 429 1073.1 428.8V429.9Z" fill="#535353"/>
    <path d="M1080.5 430H1079.2V428.7C1078.6 429.7 1077.8 430.1 1076.7 430.1C1075.9 430.1 1075.3 429.9 1074.8 429.5C1074.3 429.1 1074.1 428.5 1074.1 427.8C1074.1 426.3 1075 425.4 1076.8 425.2L1079.2 424.9C1079.2 423.5 1078.6 422.9 1077.5 422.9C1076.5 422.9 1075.7 423.2 1074.9 423.9V422.6C1075.7 422.1 1076.6 421.8 1077.6 421.8C1079.5 421.8 1080.4 422.8 1080.4 424.8V430H1080.5V430ZM1079.2 425.9L1077.3 426.2C1076.7 426.3 1076.3 426.4 1076 426.6C1075.7 426.8 1075.5 427.2 1075.5 427.7C1075.5 428.1 1075.6 428.4 1075.9 428.7C1076.2 428.9 1076.6 429.1 1077 429.1C1077.6 429.1 1078.2 428.9 1078.6 428.4C1079 428 1079.2 427.4 1079.2 426.7V425.9Z" fill="#535353"/>
    <path d="M1084.3 428.8V430H1083V418.1H1084.3V423.4C1084.9 422.3 1085.9 421.8 1087.1 421.8C1088.1 421.8 1088.9 422.2 1089.5 422.9C1090.1 423.6 1090.4 424.6 1090.4 425.8C1090.4 427.1 1090.1 428.2 1089.4 429C1088.7 429.8 1087.8 430.2 1086.7 430.2C1085.6 430.2 1084.8 429.7 1084.3 428.8ZM1084.2 425.6V426.7C1084.2 427.4 1084.4 427.9 1084.8 428.4C1085.2 428.9 1085.8 429.1 1086.4 429.1C1087.2 429.1 1087.8 428.8 1088.2 428.2C1088.6 427.6 1088.9 426.8 1088.9 425.7C1088.9 424.8 1088.7 424.1 1088.3 423.6C1087.9 423.1 1087.3 422.8 1086.6 422.8C1085.8 422.8 1085.3 423.1 1084.8 423.6C1084.5 424.1 1084.2 424.8 1084.2 425.6Z" fill="#535353"/>
    <path d="M1098.1 430H1096.8V428.7C1096.2 429.7 1095.4 430.1 1094.3 430.1C1093.5 430.1 1092.9 429.9 1092.4 429.5C1091.9 429.1 1091.7 428.5 1091.7 427.8C1091.7 426.3 1092.6 425.4 1094.4 425.2L1096.8 424.9C1096.8 423.5 1096.2 422.9 1095.1 422.9C1094.1 422.9 1093.3 423.2 1092.5 423.9V422.6C1093.3 422.1 1094.2 421.8 1095.2 421.8C1097.1 421.8 1098 422.8 1098 424.8V430H1098.1V430ZM1096.8 425.9L1094.9 426.2C1094.3 426.3 1093.9 426.4 1093.6 426.6C1093.3 426.8 1093.2 427.2 1093.2 427.7C1093.2 428.1 1093.3 428.4 1093.6 428.7C1093.9 428.9 1094.3 429.1 1094.7 429.1C1095.3 429.1 1095.9 428.9 1096.3 428.4C1096.7 428 1096.9 427.4 1096.9 426.7V425.9H1096.8Z" fill="#535353"/>
    <path d="M1100.1 429.7V428.3C1100.8 428.8 1101.6 429.1 1102.4 429.1C1103.5 429.1 1104.1 428.7 1104.1 428C1104.1 427.8 1104 427.6 1103.9 427.5C1103.8 427.3 1103.7 427.2 1103.5 427.1C1103.3 427 1103.1 426.9 1102.9 426.8C1102.7 426.7 1102.4 426.6 1102.2 426.5C1101.9 426.4 1101.5 426.2 1101.3 426.1C1101 426 1100.8 425.8 1100.6 425.6C1100.4 425.4 1100.3 425.2 1100.2 425C1100.1 424.8 1100.1 424.5 1100.1 424.2C1100.1 423.8 1100.2 423.5 1100.4 423.2C1100.6 422.9 1100.8 422.7 1101.1 422.5C1101.4 422.3 1101.7 422.2 1102.1 422.1C1102.5 422 1102.8 421.9 1103.2 421.9C1103.9 421.9 1104.5 422 1105.1 422.3V423.6C1104.5 423.2 1103.8 423 1103.1 423C1102.9 423 1102.6 423 1102.4 423.1C1102.2 423.2 1102 423.2 1101.9 423.3C1101.8 423.4 1101.7 423.5 1101.6 423.7C1101.5 423.8 1101.5 424 1101.5 424.2C1101.5 424.4 1101.5 424.6 1101.6 424.7C1101.7 424.8 1101.8 425 1101.9 425.1C1102 425.2 1102.2 425.3 1102.4 425.4C1102.6 425.5 1102.8 425.6 1103.1 425.7C1103.5 425.8 1103.8 426 1104.1 426.1C1104.4 426.2 1104.6 426.4 1104.8 426.6C1105 426.8 1105.1 427 1105.3 427.2C1105.4 427.4 1105.5 427.7 1105.5 428C1105.5 428.4 1105.4 428.7 1105.2 429C1105 429.3 1104.8 429.5 1104.5 429.7C1104.2 429.9 1103.9 430 1103.5 430.1C1103.1 430.2 1102.7 430.2 1102.3 430.2C1101.4 430.2 1100.7 430 1100.1 429.7Z" fill="#535353"/>
    <path d="M1113.8 426.3H1108.1C1108.1 427.2 1108.4 427.9 1108.8 428.4C1109.3 428.9 1109.9 429.1 1110.7 429.1C1111.6 429.1 1112.4 428.8 1113.2 428.2V429.4C1112.5 429.9 1111.6 430.2 1110.4 430.2C1109.3 430.2 1108.4 429.8 1107.7 429.1C1107.1 428.4 1106.7 427.3 1106.7 426C1106.7 424.8 1107 423.7 1107.8 422.9C1108.5 422.1 1109.4 421.7 1110.4 421.7C1111.4 421.7 1112.3 422 1112.8 422.7C1113.4 423.4 1113.7 424.3 1113.7 425.5V426.3H1113.8ZM1112.5 425.2C1112.5 424.5 1112.3 423.9 1112 423.5C1111.7 423.1 1111.2 422.9 1110.5 422.9C1109.9 422.9 1109.4 423.1 1109 423.5C1108.6 423.9 1108.3 424.5 1108.2 425.2H1112.5Z" fill="#535353"/>
    <path d="M10 227.3V225.7C10.2 225.9 10.4 226 10.6 226.1C10.8 226.2 11.1 226.3 11.4 226.4C11.7 226.5 11.9 226.6 12.2 226.6C12.5 226.6 12.7 226.7 13 226.7C13.8 226.7 14.4 226.5 14.8 226.2C15.2 225.9 15.4 225.5 15.4 224.9C15.4 224.6 15.3 224.3 15.2 224.1C15.1 223.9 14.9 223.7 14.6 223.5C14.4 223.3 14.1 223.1 13.8 223C13.5 222.8 13.1 222.7 12.8 222.5C12.4 222.3 12 222.1 11.7 221.9C11.4 221.7 11.1 221.5 10.8 221.2C10.5 221 10.4 220.7 10.2 220.4C10.1 220.1 10 219.7 10 219.3C10 218.8 10.1 218.3 10.3 218C10.5 217.6 10.8 217.3 11.2 217.1C11.6 216.9 12 216.7 12.4 216.6C12.9 216.5 13.3 216.4 13.8 216.4C14.9 216.4 15.7 216.5 16.2 216.8V218.3C15.5 217.8 14.7 217.6 13.6 217.6C13.3 217.6 13 217.6 12.7 217.7C12.4 217.8 12.2 217.9 11.9 218C11.7 218.1 11.5 218.3 11.4 218.5C11.3 218.7 11.2 219 11.2 219.3C11.2 219.6 11.3 219.8 11.4 220C11.5 220.2 11.7 220.4 11.9 220.6C12.1 220.8 12.4 220.9 12.7 221.1C13 221.3 13.3 221.4 13.7 221.6C14.1 221.8 14.5 222 14.8 222.2C15.2 222.4 15.5 222.7 15.7 222.9C16 223.2 16.2 223.5 16.3 223.8C16.5 224.1 16.5 224.5 16.5 224.9C16.5 225.5 16.4 225.9 16.2 226.3C16 226.7 15.7 227 15.3 227.2C14.9 227.4 14.5 227.6 14 227.7C13.5 227.8 13 227.9 12.5 227.9C12.3 227.9 12.1 227.9 11.8 227.9C11.5 227.9 11.3 227.8 11 227.8C10.7 227.7 10.5 227.7 10.2 227.6C10.3 227.5 10.1 227.4 10 227.3Z" fill="#535353"/>
    <path d="M22.1 227.7C21.8 227.9 21.4 228 20.9 228C19.5 228 18.8 227.2 18.8 225.6V220.9H17.4V219.8H18.8V217.8L20.1 217.4V219.8H22.1V220.9H20.1V225.4C20.1 225.9 20.2 226.3 20.4 226.6C20.6 226.8 20.9 226.9 21.3 226.9C21.6 226.9 21.9 226.8 22.1 226.6V227.7Z" fill="#535353"/>
    <path d="M28 221C27.8 220.8 27.5 220.7 27 220.7C26.5 220.7 26 221 25.6 221.5C25.2 222 25 222.7 25 223.6V227.7H23.7V219.7H25V221.4C25.2 220.8 25.5 220.4 25.8 220.1C26.2 219.8 26.6 219.6 27.1 219.6C27.4 219.6 27.7 219.6 27.9 219.7L28 221Z" fill="#535353"/>
    <path d="M35.8 224.1H30.1C30.1 225 30.4 225.7 30.8 226.2C31.3 226.7 31.9 226.9 32.7 226.9C33.6 226.9 34.4 226.6 35.2 226V227.2C34.5 227.7 33.6 228 32.4 228C31.3 228 30.4 227.6 29.7 226.9C29.1 226.2 28.7 225.1 28.7 223.8C28.7 222.6 29.1 221.5 29.8 220.7C30.5 219.9 31.4 219.5 32.4 219.5C33.4 219.5 34.3 219.8 34.8 220.5C35.3 221.2 35.7 222.1 35.7 223.3V224.1H35.8V224.1ZM34.5 223C34.5 222.3 34.3 221.7 34 221.3C33.6 220.9 33.2 220.7 32.5 220.7C31.9 220.7 31.4 220.9 31 221.4C30.6 221.8 30.3 222.4 30.2 223.1H34.5V223Z" fill="#535353"/>
    <path d="M43.5 227.8H42.2V226.5C41.6 227.5 40.8 227.9 39.7 227.9C38.9 227.9 38.3 227.7 37.8 227.3C37.3 226.9 37.1 226.3 37.1 225.6C37.1 224.1 38 223.2 39.7 223L42.1 222.7C42.1 221.3 41.5 220.7 40.4 220.7C39.4 220.7 38.6 221 37.8 221.7V220.4C38.6 219.9 39.5 219.6 40.5 219.6C42.4 219.6 43.3 220.6 43.3 222.6V227.8H43.5V227.8ZM42.2 223.7L40.3 224C39.7 224.1 39.3 224.2 39 224.4C38.7 224.6 38.5 225 38.5 225.5C38.5 225.9 38.6 226.2 38.9 226.5C39.2 226.7 39.6 226.9 40 226.9C40.6 226.9 41.2 226.7 41.6 226.2C42 225.8 42.2 225.2 42.2 224.5V223.7Z" fill="#535353"/>
    <path d="M57.3 227.8H56V223.2C56 222.3 55.9 221.7 55.6 221.3C55.3 220.9 54.9 220.7 54.2 220.7C53.7 220.7 53.2 221 52.8 221.5C52.4 222 52.2 222.6 52.2 223.3V227.9H51V223C51 221.4 50.4 220.6 49.2 220.6C48.6 220.6 48.2 220.8 47.8 221.3C47.4 221.8 47.3 222.4 47.3 223.1V227.7H46V219.7H47.3V221C47.9 220 48.7 219.5 49.8 219.5C50.3 219.5 50.8 219.7 51.2 220C51.6 220.3 51.9 220.7 52 221.2C52.6 220.1 53.5 219.5 54.7 219.5C56.5 219.5 57.3 220.6 57.3 222.8V227.8Z" fill="#535353"/>
    <path d="M60.4 217.7C60.2 217.7 60 217.6 59.8 217.5C59.6 217.3 59.6 217.1 59.6 216.9C59.6 216.7 59.7 216.5 59.8 216.3C60 216.1 60.2 216.1 60.4 216.1C60.6 216.1 60.8 216.2 61 216.3C61.2 216.5 61.2 216.7 61.2 216.9C61.2 217.1 61.1 217.3 61 217.5C60.8 217.6 60.6 217.7 60.4 217.7ZM61 227.8H59.7V219.8H61V227.8Z" fill="#535353"/>
    <path d="M70.3 227.8H69V223.2C69 221.5 68.4 220.6 67.1 220.6C66.5 220.6 65.9 220.8 65.5 221.3C65.1 221.8 64.9 222.4 64.9 223.1V227.7H63.6V219.7H64.9V221C65.5 220 66.4 219.5 67.5 219.5C68.4 219.5 69 219.8 69.5 220.4C70 221 70.2 221.8 70.2 222.9L70.3 227.8Z" fill="#535353"/>
    <path d="M79.6 227.1C79.6 230 78.2 231.5 75.4 231.5C74.4 231.5 73.5 231.3 72.8 230.9V229.6C73.7 230.1 74.6 230.4 75.4 230.4C77.4 230.4 78.4 229.4 78.4 227.3V226.4C77.8 227.4 76.9 227.9 75.6 227.9C74.6 227.9 73.8 227.5 73.2 226.8C72.6 226.1 72.3 225.1 72.3 223.9C72.3 222.5 72.6 221.5 73.3 220.6C74 219.8 74.9 219.4 76 219.4C77.1 219.4 77.9 219.8 78.4 220.7V219.6H79.7V227.1H79.6V227.1ZM78.3 224.1V223C78.3 222.4 78.1 221.8 77.7 221.4C77.3 220.9 76.7 220.7 76.1 220.7C75.3 220.7 74.7 221 74.2 221.6C73.7 222.2 73.5 223 73.5 224C73.5 224.9 73.7 225.6 74.1 226.1C74.5 226.6 75.1 226.9 75.8 226.9C76.5 226.9 77.1 226.6 77.6 226.1C78.1 225.6 78.3 224.9 78.3 224.1Z" fill="#535353"/>
    <path d="M86.7 227.8V216.6H89.8C93.8 216.6 95.7 218.4 95.7 222.1C95.7 223.8 95.2 225.2 94 226.3C92.9 227.4 91.4 227.9 89.6 227.9L86.7 227.8ZM88.1 217.7V226.6H89.8C91.3 226.6 92.4 226.2 93.2 225.4C94 224.6 94.4 223.5 94.4 222C94.4 219.1 92.9 217.7 89.8 217.7H88.1Z" fill="#535353"/>
    <path d="M103.6 227.8H102.3V226.5C101.7 227.5 100.9 227.9 99.8 227.9C99 227.9 98.4 227.7 97.9 227.3C97.4 226.9 97.2 226.3 97.2 225.6C97.2 224.1 98.1 223.2 99.8 223L102.2 222.7C102.2 221.3 101.6 220.7 100.5 220.7C99.5 220.7 98.7 221 97.9 221.7V220.4C98.7 219.9 99.6 219.6 100.6 219.6C102.5 219.6 103.4 220.6 103.4 222.6V227.8H103.6V227.8ZM102.3 223.7L100.4 224C99.8 224.1 99.4 224.2 99.1 224.4C98.8 224.6 98.6 225 98.6 225.5C98.6 225.9 98.7 226.2 99 226.5C99.3 226.7 99.7 226.9 100.1 226.9C100.7 226.9 101.3 226.7 101.7 226.2C102.1 225.8 102.3 225.2 102.3 224.5V223.7Z" fill="#535353"/>
    <path d="M109.7 227.7C109.4 227.9 109 228 108.5 228C107.1 228 106.4 227.2 106.4 225.6V220.9H105V219.8H106.4V217.8L107.7 217.4V219.8H109.7V220.9H107.7V225.4C107.7 225.9 107.8 226.3 108 226.6C108.2 226.8 108.5 226.9 108.9 226.9C109.2 226.9 109.5 226.8 109.7 226.6V227.7Z" fill="#535353"/>
    <path d="M117.2 227.8H115.9V226.5C115.3 227.5 114.5 227.9 113.4 227.9C112.6 227.9 112 227.7 111.5 227.3C111 226.9 110.8 226.3 110.8 225.6C110.8 224.1 111.7 223.2 113.4 223L115.8 222.7C115.8 221.3 115.2 220.7 114.1 220.7C113.1 220.7 112.3 221 111.5 221.7V220.4C112.3 219.9 113.2 219.6 114.2 219.6C116.1 219.6 117 220.6 117 222.6V227.8H117.2V227.8ZM115.9 223.7L114 224C113.4 224.1 113 224.2 112.7 224.4C112.4 224.6 112.2 225 112.2 225.5C112.2 225.9 112.3 226.2 112.6 226.5C112.9 226.7 113.3 226.9 113.7 226.9C114.3 226.9 114.9 226.7 115.3 226.2C115.7 225.8 115.9 225.2 115.9 224.5V223.7Z" fill="#535353"/>
    <path d="M236.6 233.8H235.1L233.9 230.6H229.1L228 233.8H226.5L230.8 222.6H232.2L236.6 233.8ZM233.5 229.5L231.7 224.7C231.6 224.5 231.6 224.3 231.5 223.9C231.4 224.2 231.4 224.5 231.3 224.7L229.6 229.5H233.5Z" fill="#535353"/>
    <path d="M243.7 226.2L239 232.8H243.7V233.9H237V233.5L241.7 227H237.4V225.9H243.6V226.2H243.7Z" fill="#535353"/>
    <path d="M251.8 233.8H250.5V232.5C250 233.5 249.1 234 248 234C246.1 234 245.1 232.9 245.1 230.6V225.8H246.4V230.4C246.4 232.1 247 232.9 248.3 232.9C248.9 232.9 249.4 232.7 249.8 232.2C250.2 231.7 250.4 231.1 250.4 230.4V225.8H251.7V233.8H251.8V233.8Z" fill="#535353"/>
    <path d="M258.6 227.1C258.4 226.9 258.1 226.8 257.6 226.8C257.1 226.8 256.6 227.1 256.2 227.6C255.8 228.1 255.6 228.8 255.6 229.7V233.8H254.3V225.8H255.6V227.5C255.8 226.9 256.1 226.5 256.4 226.2C256.8 225.9 257.2 225.7 257.7 225.7C258 225.7 258.3 225.7 258.5 225.8L258.6 227.1Z" fill="#535353"/>
    <path d="M266.4 230.1H260.7C260.7 231 261 231.7 261.4 232.2C261.9 232.7 262.5 232.9 263.3 232.9C264.2 232.9 265 232.6 265.8 232V233.2C265.1 233.7 264.2 234 263 234C261.9 234 261 233.6 260.3 232.9C259.7 232.2 259.3 231.1 259.3 229.8C259.3 228.6 259.7 227.5 260.4 226.7C261.1 225.9 262 225.5 263 225.5C264 225.5 264.9 225.8 265.4 226.5C266 227.2 266.3 228.1 266.3 229.3V230.1H266.4V230.1ZM265.1 229.1C265.1 228.4 264.9 227.8 264.6 227.4C264.2 227 263.8 226.8 263.1 226.8C262.5 226.8 262 227 261.6 227.5C261.2 227.9 260.9 228.5 260.8 229.2H265.1V229.1Z" fill="#535353"/>
    <path d="M278.9 233.8H272.9V222.6H278.6V223.8H274.2V227.5H278.3V228.7H274.2V232.6H278.8L278.9 233.8Z" fill="#535353"/>
    <path d="M287.2 225.8L284 233.8H282.7L279.7 225.8H281.1L283.1 231.6C283.3 232 283.3 232.4 283.4 232.7C283.5 232.3 283.5 231.9 283.7 231.6L285.8 225.7H287.2V225.8Z" fill="#535353"/>
    <path d="M295 230.1H289.3C289.3 231 289.6 231.7 290 232.2C290.5 232.7 291.1 232.9 291.9 232.9C292.8 232.9 293.6 232.6 294.4 232V233.2C293.7 233.7 292.8 234 291.6 234C290.5 234 289.6 233.6 288.9 232.9C288.3 232.2 287.9 231.1 287.9 229.8C287.9 228.6 288.3 227.5 289 226.7C289.7 225.9 290.6 225.5 291.6 225.5C292.6 225.5 293.5 225.8 294 226.5C294.6 227.2 294.9 228.1 294.9 229.3V230.1H295V230.1ZM293.7 229.1C293.7 228.4 293.5 227.8 293.2 227.4C292.8 227 292.4 226.8 291.7 226.8C291.1 226.8 290.6 227 290.2 227.5C289.8 227.9 289.5 228.5 289.4 229.2H293.7V229.1Z" fill="#535353"/>
    <path d="M303.6 233.8H302.3V229.2C302.3 227.5 301.7 226.6 300.4 226.6C299.8 226.6 299.2 226.8 298.8 227.3C298.4 227.8 298.2 228.4 298.2 229.1V233.7H297V225.7H298.3V227C298.9 226 299.8 225.5 300.9 225.5C301.8 225.5 302.4 225.8 302.9 226.3C303.4 226.9 303.6 227.7 303.6 228.8V233.8Z" fill="#535353"/>
    <path d="M309.8 233.8C309.5 234 309.1 234.1 308.6 234.1C307.2 234.1 306.5 233.3 306.5 231.8V227.1H305.1V226H306.5V224L307.8 223.6V226H309.8V227.1H307.8V231.6C307.8 232.1 307.9 232.5 308.1 232.8C308.3 233 308.6 233.1 309 233.1C309.3 233.1 309.6 233 309.8 232.8V233.8Z" fill="#535353"/>
    <path d="M324.5 233.8H323.2V228.7H317.4V233.8H316V222.6H317.3V227.5H323.1V222.6H324.4V233.8H324.5Z" fill="#535353"/>
    <path d="M333.8 233.8H332.5V232.5C332 233.5 331.1 234 330 234C328.1 234 327.1 232.9 327.1 230.6V225.8H328.4V230.4C328.4 232.1 329 232.9 330.3 232.9C330.9 232.9 331.4 232.7 331.8 232.2C332.2 231.7 332.4 231.1 332.4 230.4V225.8H333.7V233.8H333.8V233.8Z" fill="#535353"/>
    <path d="M337.7 232.7V233.9H336.4V222H337.7V227.3C338.3 226.2 339.3 225.7 340.5 225.7C341.5 225.7 342.3 226.1 342.9 226.8C343.5 227.5 343.8 228.5 343.8 229.7C343.8 231 343.5 232.1 342.8 232.9C342.1 233.7 341.3 234.1 340.1 234.1C339 234 338.2 233.6 337.7 232.7ZM337.6 229.4V230.5C337.6 231.2 337.8 231.7 338.2 232.2C338.6 232.7 339.2 232.9 339.8 232.9C340.6 232.9 341.2 232.6 341.6 232C342 231.4 342.3 230.6 342.3 229.5C342.3 228.6 342.1 227.9 341.7 227.4C341.3 226.9 340.7 226.6 340 226.6C339.3 226.6 338.6 226.9 338.2 227.4C337.9 228 337.6 228.7 337.6 229.4Z" fill="#535353"/>
    <path d="M345.3 233.5V232.1C346 232.6 346.8 232.9 347.6 232.9C348.7 232.9 349.3 232.5 349.3 231.8C349.3 231.6 349.3 231.4 349.2 231.3C349.1 231.1 349 231 348.8 230.9C348.6 230.8 348.4 230.7 348.2 230.6C348 230.5 347.7 230.4 347.5 230.3C347.1 230.2 346.8 230 346.6 229.9C346.3 229.8 346.1 229.6 345.9 229.4C345.7 229.2 345.6 229 345.5 228.8C345.4 228.6 345.4 228.3 345.4 228C345.4 227.6 345.5 227.3 345.7 227C345.9 226.7 346.1 226.5 346.4 226.3C346.7 226.1 347 226 347.4 225.9C347.8 225.8 348.1 225.7 348.5 225.7C349.2 225.7 349.8 225.8 350.4 226.1V227.4C349.8 227 349.1 226.8 348.4 226.8C348.2 226.8 347.9 226.8 347.7 226.9C347.5 227 347.3 227 347.2 227.1C347.1 227.2 347 227.3 346.9 227.5C346.8 227.6 346.8 227.8 346.8 228C346.8 228.2 346.8 228.4 346.9 228.5C347 228.6 347.1 228.8 347.2 228.9C347.3 229 347.5 229.1 347.7 229.2C347.9 229.3 348.1 229.4 348.4 229.5C348.8 229.6 349.1 229.8 349.4 229.9C349.7 230 349.9 230.2 350.1 230.4C350.3 230.6 350.5 230.8 350.6 231C350.7 231.2 350.8 231.5 350.8 231.8C350.8 232.2 350.7 232.5 350.5 232.8C350.3 233.1 350.1 233.3 349.8 233.5C349.5 233.7 349.2 233.8 348.8 233.9C348.4 234 348 234 347.6 234C346.6 234 345.9 233.9 345.3 233.5Z" fill="#535353"/>
    <path d="M452.6 390.2H451.1L450 387H445.2L444.1 390.1H442.6L446.9 378.9H448.3L452.6 390.2ZM449.5 385.8L447.7 381C447.6 380.8 447.6 380.6 447.5 380.2C447.4 380.5 447.4 380.8 447.3 381L445.6 385.8H449.5Z" fill="#535353"/>
    <path d="M459.7 382.5L455 389.1H459.7V390.2H453V389.8L457.7 383.3H453.4V382.2H459.6V382.5H459.7V382.5Z" fill="#535353"/>
    <path d="M467.8 390.2H466.5V388.9C466 389.9 465.1 390.4 464 390.4C462.1 390.4 461.1 389.3 461.1 387V382.2H462.4V386.8C462.4 388.5 463 389.3 464.3 389.3C464.9 389.3 465.4 389.1 465.8 388.6C466.2 388.1 466.4 387.5 466.4 386.8V382.2H467.7V390.2H467.8Z" fill="#535353"/>
    <path d="M474.6 383.4C474.4 383.2 474.1 383.1 473.6 383.1C473.1 383.1 472.6 383.4 472.2 383.9C471.8 384.4 471.6 385.1 471.6 386V390.1H470.3V382.1H471.6V383.8C471.8 383.2 472.1 382.8 472.4 382.5C472.7 382.2 473.2 382 473.7 382C474 382 474.3 382 474.5 382.1L474.6 383.4Z" fill="#535353"/>
    <path d="M482.5 386.5H476.8C476.8 387.4 477.1 388.1 477.5 388.6C478 389.1 478.6 389.3 479.4 389.3C480.3 389.3 481.1 389 481.9 388.4V389.6C481.2 390.1 480.3 390.4 479.1 390.4C478 390.4 477.1 390 476.4 389.3C475.8 388.6 475.4 387.5 475.4 386.2C475.4 385 475.8 383.9 476.5 383.1C477.2 382.3 478.1 381.9 479.1 381.9C480.1 381.9 481 382.2 481.5 382.9C482.1 383.6 482.4 384.5 482.4 385.7V386.5H482.5ZM481.1 385.4C481.1 384.7 480.9 384.1 480.6 383.7C480.2 383.3 479.8 383.1 479.1 383.1C478.5 383.1 478 383.3 477.6 383.7C477.2 384.1 476.9 384.7 476.8 385.4H481.1Z" fill="#535353"/>
    <path d="M489 390.2V379H492.2C493.2 379 493.9 379.2 494.5 379.7C495.1 380.2 495.4 380.8 495.4 381.6C495.4 382.2 495.2 382.8 494.9 383.3C494.6 383.8 494.1 384.1 493.5 384.3C494.3 384.4 494.9 384.7 495.3 385.2C495.8 385.7 496 386.3 496 387.1C496 388.1 495.7 388.8 495 389.4C494.3 390 493.4 390.3 492.4 390.3L489 390.2ZM490.3 380.1V383.7H491.6C492.3 383.7 492.9 383.5 493.3 383.2C493.7 382.9 493.9 382.4 493.9 381.7C493.9 380.6 493.2 380.1 491.7 380.1H490.3ZM490.3 384.9V388.9H492.1C492.9 388.9 493.5 388.7 493.9 388.4C494.3 388 494.5 387.5 494.5 386.9C494.5 385.6 493.6 384.9 491.8 384.9H490.3Z" fill="#535353"/>
    <path d="M499.3 390.2H498V378.3H499.3V390.2Z" fill="#535353"/>
    <path d="M505.2 390.4C504 390.4 503.1 390 502.4 389.3C501.7 388.6 501.3 387.6 501.3 386.3C501.3 384.9 501.7 383.9 502.4 383.1C503.1 382.3 504.1 382 505.4 382C506.6 382 507.5 382.4 508.2 383.1C508.9 383.8 509.2 384.9 509.2 386.2C509.2 387.5 508.8 388.5 508.1 389.3C507.4 390 506.5 390.4 505.2 390.4ZM505.3 383C504.5 383 503.8 383.3 503.3 383.8C502.8 384.4 502.6 385.1 502.6 386.1C502.6 387.1 502.8 387.8 503.3 388.3C503.8 388.8 504.4 389.1 505.3 389.1C506.1 389.1 506.8 388.8 507.2 388.3C507.6 387.8 507.9 387 507.9 386C507.9 385 507.7 384.2 507.2 383.7C506.8 383.3 506.2 383 505.3 383Z" fill="#535353"/>
    <path d="M512.6 389V390.2H511.3V378.3H512.6V383.6C513.2 382.5 514.2 382 515.4 382C516.4 382 517.2 382.4 517.8 383.1C518.4 383.8 518.7 384.8 518.7 386C518.7 387.3 518.4 388.4 517.7 389.2C517 390 516.2 390.4 515 390.4C513.9 390.4 513.1 389.9 512.6 389ZM512.6 385.8V386.9C512.6 387.6 512.8 388.1 513.2 388.6C513.6 389.1 514.2 389.3 514.8 389.3C515.6 389.3 516.2 389 516.6 388.4C517 387.8 517.3 387 517.3 385.9C517.3 385 517.1 384.3 516.7 383.8C516.3 383.3 515.7 383 515 383C514.3 383 513.7 383.3 513.2 383.8C512.8 384.3 512.6 385 512.6 385.8Z" fill="#535353"/>
    <path d="M524.8 389.7V388.1C525 388.3 525.2 388.4 525.4 388.5C525.6 388.6 525.9 388.7 526.2 388.8C526.5 388.9 526.7 389 527 389C527.3 389 527.5 389.1 527.8 389.1C528.6 389.1 529.2 389 529.6 388.6C530 388.3 530.2 387.9 530.2 387.3C530.2 387 530.1 386.7 530 386.5C529.9 386.3 529.7 386.1 529.4 385.9C529.2 385.7 528.9 385.5 528.6 385.4C528.3 385.3 527.9 385 527.6 384.9C527.2 384.7 526.8 384.5 526.5 384.3C526.2 384.1 525.9 383.9 525.6 383.6C525.3 383.4 525.2 383.1 525 382.8C524.8 382.5 524.8 382.1 524.8 381.7C524.8 381.2 524.9 380.7 525.1 380.4C525.3 380 525.6 379.7 526 379.5C526.4 379.3 526.8 379.1 527.2 379C527.7 378.9 528.1 378.8 528.6 378.8C529.7 378.8 530.5 378.9 531 379.2V380.7C530.3 380.2 529.5 380 528.4 380C528.1 380 527.8 380 527.5 380.1C527.2 380.2 527 380.3 526.7 380.4C526.5 380.5 526.3 380.7 526.2 380.9C526.1 381.1 526 381.4 526 381.7C526 382 526.1 382.2 526.2 382.4C526.3 382.6 526.5 382.8 526.7 383C526.9 383.2 527.2 383.3 527.5 383.5C527.8 383.7 528.1 383.8 528.5 384C528.9 384.2 529.3 384.4 529.6 384.6C530 384.8 530.3 385.1 530.5 385.3C530.8 385.6 531 385.9 531.1 386.2C531.2 386.5 531.3 386.9 531.3 387.3C531.3 387.9 531.2 388.3 531 388.7C530.8 389.1 530.5 389.4 530.1 389.6C529.7 389.8 529.3 390 528.8 390.1C528.3 390.2 527.8 390.3 527.3 390.3C527.1 390.3 526.9 390.3 526.6 390.3C526.3 390.3 526.1 390.2 525.8 390.2C525.5 390.1 525.3 390.1 525 390C525.1 389.9 524.9 389.8 524.8 389.7Z" fill="#535353"/>
    <path d="M536.8 390.1C536.5 390.3 536.1 390.4 535.6 390.4C534.2 390.4 533.5 389.6 533.5 388.1V383.4H532.1V382.3H533.5V380.3L534.8 379.9V382.3H536.8V383.4H534.8V387.9C534.8 388.4 534.9 388.8 535.1 389.1C535.3 389.3 535.6 389.4 536 389.4C536.3 389.4 536.6 389.3 536.8 389.1V390.1V390.1Z" fill="#535353"/>
    <path d="M541.9 390.4C540.7 390.4 539.8 390 539.1 389.3C538.4 388.6 538 387.6 538 386.3C538 384.9 538.4 383.9 539.1 383.1C539.8 382.3 540.8 382 542.1 382C543.3 382 544.2 382.4 544.9 383.1C545.6 383.8 545.9 384.9 545.9 386.2C545.9 387.5 545.5 388.5 544.8 389.3C544.1 390 543.1 390.4 541.9 390.4ZM542 383C541.2 383 540.5 383.3 540 383.8C539.5 384.4 539.3 385.1 539.3 386.1C539.3 387.1 539.5 387.8 540 388.3C540.5 388.8 541.1 389.1 542 389.1C542.8 389.1 543.5 388.8 543.9 388.3C544.3 387.8 544.6 387 544.6 386C544.6 385 544.4 384.2 543.9 383.7C543.5 383.3 542.8 383 542 383Z" fill="#535353"/>
    <path d="M552.1 383.4C551.9 383.2 551.6 383.1 551.1 383.1C550.6 383.1 550.1 383.4 549.7 383.9C549.3 384.4 549.1 385.1 549.1 386V390.1H548V382.1H549.3V383.8C549.5 383.2 549.8 382.8 550.1 382.5C550.5 382.2 550.9 382 551.4 382C551.7 382 552 382 552.2 382.1L552.1 383.4Z" fill="#535353"/>
    <path d="M559.3 390.2H558V388.9C557.4 389.9 556.6 390.3 555.5 390.3C554.7 390.3 554.1 390.1 553.6 389.7C553.1 389.3 552.9 388.7 552.9 388C552.9 386.5 553.8 385.6 555.5 385.4L557.9 385.1C557.9 383.7 557.3 383.1 556.2 383.1C555.2 383.1 554.4 383.4 553.6 384.1V382.8C554.4 382.3 555.3 382 556.3 382C558.2 382 559.1 383 559.1 385V390.2H559.3V390.2ZM558 386.1L556.1 386.4C555.5 386.5 555.1 386.6 554.7 386.8C554.4 387 554.2 387.4 554.2 387.9C554.2 388.3 554.3 388.6 554.6 388.9C554.9 389.1 555.3 389.3 555.7 389.3C556.3 389.3 556.9 389.1 557.3 388.6C557.7 388.2 557.9 387.6 557.9 386.9V386.1H558Z" fill="#535353"/>
    <path d="M568.5 389.5C568.5 392.4 567.1 393.9 564.3 393.9C563.3 393.9 562.4 393.7 561.7 393.3V392C562.6 392.5 563.5 392.8 564.3 392.8C566.3 392.8 567.3 391.8 567.3 389.7V388.8C566.7 389.8 565.8 390.3 564.5 390.3C563.5 390.3 562.7 389.9 562.1 389.2C561.5 388.5 561.2 387.5 561.2 386.3C561.2 384.9 561.5 383.9 562.2 383C562.9 382.2 563.8 381.8 564.9 381.8C566 381.8 566.8 382.2 567.3 383.1V382H568.6V389.5H568.5ZM567.3 386.5V385.3C567.3 384.7 567.1 384.1 566.7 383.7C566.3 383.3 565.7 383 565.1 383C564.3 383 563.7 383.3 563.2 383.9C562.7 384.5 562.5 385.3 562.5 386.3C562.5 387.2 562.7 387.9 563.1 388.4C563.5 388.9 564.1 389.2 564.8 389.2C565.5 389.2 566.1 388.9 566.6 388.4C567 388 567.3 387.3 567.3 386.5Z" fill="#535353"/>
    <path d="M577.6 386.5H571.9C571.9 387.4 572.2 388.1 572.6 388.6C573.1 389.1 573.7 389.3 574.5 389.3C575.4 389.3 576.2 389 577 388.4V389.6C576.3 390.1 575.4 390.4 574.2 390.4C573.1 390.4 572.2 390 571.5 389.3C570.9 388.6 570.5 387.5 570.5 386.2C570.5 385 570.9 383.9 571.6 383.1C572.3 382.3 573.2 381.9 574.2 381.9C575.2 381.9 576.1 382.2 576.6 382.9C577.2 383.6 577.5 384.5 577.5 385.7V386.5H577.6ZM576.3 385.4C576.3 384.7 576.1 384.1 575.8 383.7C575.4 383.3 575 383.1 574.3 383.1C573.7 383.1 573.2 383.3 572.8 383.7C572.4 384.1 572.1 384.7 572 385.4H576.3Z" fill="#535353"/>
    <path d="M665.2 231.6H663.7L662.5 228.5H657.7L656.6 231.6H655.1L659.4 220.4H660.8L665.2 231.6ZM662.1 227.2L660.3 222.4C660.2 222.2 660.2 222 660.1 221.6C660 221.9 660 222.2 659.9 222.4L658.2 227.2H662.1Z" fill="#535353"/>
    <path d="M672.3 223.9L667.6 230.5H672.3V231.6H665.7V231.2L670.4 224.7H666.1V223.6H672.3V223.9Z" fill="#535353"/>
    <path d="M680.4 231.6H679.1V230.3C678.6 231.3 677.7 231.8 676.6 231.8C674.7 231.8 673.7 230.7 673.7 228.4V223.6H675V228.2C675 229.9 675.6 230.7 676.9 230.7C677.5 230.7 678 230.5 678.4 230C678.8 229.5 679 228.9 679 228.2V223.6H680.3V231.6H680.4V231.6Z" fill="#535353"/>
    <path d="M687.2 224.8C687 224.6 686.7 224.5 686.2 224.5C685.7 224.5 685.2 224.8 684.8 225.3C684.4 225.8 684.2 226.5 684.2 227.4V231.5H683V223.5H684.3V225.2C684.5 224.6 684.8 224.2 685.1 223.9C685.5 223.6 685.9 223.4 686.4 223.4C686.7 223.4 687 223.4 687.2 223.5V224.8Z" fill="#535353"/>
    <path d="M695.1 227.9H689.4C689.4 228.8 689.7 229.5 690.1 230C690.6 230.5 691.2 230.7 692 230.7C692.9 230.7 693.7 230.4 694.5 229.8V231C693.8 231.5 692.9 231.8 691.7 231.8C690.6 231.8 689.7 231.4 689 230.7C688.4 230 688 228.9 688 227.6C688 226.4 688.4 225.3 689.1 224.5C689.8 223.7 690.7 223.3 691.7 223.3C692.7 223.3 693.6 223.6 694.1 224.3C694.7 225 695 225.9 695 227.1V227.9H695.1V227.9ZM693.8 226.8C693.8 226.1 693.6 225.5 693.3 225.1C692.9 224.7 692.5 224.5 691.8 224.5C691.2 224.5 690.7 224.7 690.3 225.2C689.9 225.6 689.6 226.2 689.5 226.9H693.8V226.8Z" fill="#535353"/>
    <path d="M701.1 231.1V229.5C701.3 229.7 701.5 229.8 701.7 229.9C701.9 230 702.2 230.1 702.5 230.2C702.8 230.3 703 230.4 703.3 230.4C703.6 230.4 703.8 230.5 704.1 230.5C704.9 230.5 705.5 230.3 705.9 230C706.3 229.7 706.5 229.3 706.5 228.7C706.5 228.4 706.4 228.1 706.3 227.9C706.2 227.7 706 227.5 705.7 227.3C705.5 227.1 705.2 226.9 704.9 226.8C704.6 226.6 704.2 226.5 703.9 226.3C703.5 226.1 703.1 225.9 702.8 225.7C702.5 225.5 702.2 225.3 701.9 225C701.6 224.8 701.5 224.5 701.3 224.2C701.2 223.9 701.1 223.5 701.1 223.1C701.1 222.6 701.2 222.1 701.4 221.8C701.6 221.4 701.9 221.1 702.3 220.9C702.7 220.7 703.1 220.5 703.5 220.4C704 220.3 704.4 220.2 704.9 220.2C706 220.2 706.8 220.3 707.3 220.6V222.1C706.6 221.6 705.8 221.4 704.7 221.4C704.4 221.4 704.1 221.4 703.8 221.5C703.5 221.6 703.3 221.7 703 221.8C702.8 221.9 702.6 222.1 702.5 222.3C702.4 222.5 702.3 222.8 702.3 223.1C702.3 223.4 702.4 223.6 702.5 223.8C702.6 224 702.8 224.2 703 224.4C703.2 224.6 703.5 224.7 703.8 224.9C704.1 225.1 704.4 225.2 704.8 225.4C705.2 225.6 705.6 225.8 705.9 226C706.3 226.2 706.6 226.5 706.8 226.7C707.1 227 707.3 227.3 707.4 227.6C707.5 227.9 707.6 228.3 707.6 228.7C707.6 229.3 707.5 229.7 707.3 230.1C707.1 230.5 706.8 230.8 706.4 231C706 231.2 705.6 231.4 705.1 231.5C704.6 231.6 704.1 231.7 703.6 231.7C703.4 231.7 703.2 231.7 702.9 231.7C702.6 231.7 702.4 231.6 702.1 231.6C701.8 231.5 701.6 231.5 701.3 231.4C701.4 231.3 701.2 231.2 701.1 231.1Z" fill="#535353"/>
    <path d="M713.1 231.5C712.8 231.7 712.4 231.8 711.9 231.8C710.5 231.8 709.8 231 709.8 229.4V224.7H708.4V223.6H709.8V221.6L711.1 221.2V223.6H713.1V224.7H711.1V229.2C711.1 229.7 711.2 230.1 711.4 230.4C711.6 230.6 711.9 230.7 712.3 230.7C712.6 230.7 712.9 230.6 713.1 230.4V231.5V231.5Z" fill="#535353"/>
    <path d="M719 224.8C718.8 224.6 718.5 224.5 718 224.5C717.5 224.5 717 224.8 716.6 225.3C716.2 225.8 716 226.5 716 227.4V231.5H714.7V223.5H716V225.2C716.2 224.6 716.5 224.2 716.8 223.9C717.2 223.6 717.6 223.4 718.1 223.4C718.4 223.4 718.7 223.4 718.9 223.5L719 224.8Z" fill="#535353"/>
    <path d="M726.9 227.9H721.2C721.2 228.8 721.5 229.5 721.9 230C722.4 230.5 723 230.7 723.8 230.7C724.7 230.7 725.5 230.4 726.3 229.8V231C725.6 231.5 724.7 231.8 723.5 231.8C722.4 231.8 721.5 231.4 720.8 230.7C720.2 230 719.8 228.9 719.8 227.6C719.8 226.4 720.2 225.3 720.9 224.5C721.6 223.7 722.5 223.3 723.5 223.3C724.5 223.3 725.4 223.6 725.9 224.3C726.5 225 726.8 225.9 726.8 227.1V227.9H726.9V227.9ZM725.6 226.8C725.6 226.1 725.4 225.5 725.1 225.1C724.7 224.7 724.3 224.5 723.6 224.5C723 224.5 722.5 224.7 722.1 225.2C721.7 225.6 721.4 226.2 721.3 226.9H725.6V226.8Z" fill="#535353"/>
    <path d="M734.6 231.6H733.3V230.3C732.7 231.3 731.9 231.7 730.8 231.7C730 231.7 729.4 231.5 728.9 231.1C728.4 230.7 728.2 230.1 728.2 229.4C728.2 227.9 729.1 227 730.8 226.8L733.2 226.5C733.2 225.1 732.6 224.5 731.5 224.5C730.5 224.5 729.7 224.8 728.9 225.5V224.2C729.7 223.7 730.6 223.4 731.6 223.4C733.5 223.4 734.4 224.4 734.4 226.4V231.6H734.6V231.6ZM733.3 227.5L731.4 227.8C730.8 227.9 730.4 228 730.1 228.2C729.8 228.4 729.6 228.8 729.6 229.3C729.6 229.7 729.7 230 730 230.3C730.3 230.6 730.7 230.7 731.1 230.7C731.7 230.7 732.3 230.5 732.7 230C733.1 229.5 733.3 229 733.3 228.3V227.5Z" fill="#535353"/>
    <path d="M748.4 231.6H747.1V227C747.1 226.1 747 225.5 746.7 225.1C746.4 224.7 746 224.5 745.3 224.5C744.8 224.5 744.3 224.8 743.9 225.3C743.5 225.8 743.3 226.4 743.3 227.1V231.7H742V226.9C742 225.3 741.4 224.5 740.2 224.5C739.6 224.5 739.2 224.7 738.8 225.2C738.4 225.7 738.3 226.3 738.3 227V231.6H737V223.6H738.3V224.9C738.9 223.9 739.7 223.4 740.8 223.4C741.3 223.4 741.8 223.6 742.2 223.9C742.6 224.2 742.9 224.6 743 225.1C743.6 224 744.5 223.4 745.7 223.4C747.5 223.4 748.3 224.5 748.3 226.7L748.4 231.6Z" fill="#535353"/>
    <path d="M764.1 231.6H762.6L761.4 228.5H756.6L755.5 231.6H754L758.3 220.4H759.7L764.1 231.6ZM761 227.2L759.2 222.4C759.1 222.2 759.1 222 759 221.6C758.9 221.9 758.9 222.2 758.8 222.4L757.1 227.2H761Z" fill="#535353"/>
    <path d="M772.2 231.6H770.9V227C770.9 225.3 770.3 224.4 769 224.4C768.4 224.4 767.8 224.6 767.4 225.1C767 225.6 766.8 226.2 766.8 226.9V231.5H765.5V223.5H766.8V224.8C767.4 223.8 768.3 223.3 769.4 223.3C770.3 223.3 770.9 223.6 771.4 224.1C771.9 224.7 772.1 225.5 772.1 226.6L772.2 231.6Z" fill="#535353"/>
    <path d="M780.4 231.6H779.1V230.3C778.5 231.3 777.7 231.7 776.6 231.7C775.8 231.7 775.2 231.5 774.7 231.1C774.2 230.7 774 230.1 774 229.4C774 227.9 774.9 227 776.6 226.8L779 226.5C779 225.1 778.4 224.5 777.3 224.5C776.3 224.5 775.5 224.8 774.7 225.5V224.2C775.5 223.7 776.4 223.4 777.4 223.4C779.3 223.4 780.2 224.4 780.2 226.4V231.6H780.4V231.6ZM779.1 227.5L777.2 227.8C776.6 227.9 776.2 228 775.9 228.2C775.6 228.4 775.4 228.8 775.4 229.3C775.4 229.7 775.5 230 775.8 230.3C776.1 230.5 776.4 230.7 776.9 230.7C777.5 230.7 778.1 230.5 778.5 230C778.9 229.6 779.1 229 779.1 228.3V227.5Z" fill="#535353"/>
    <path d="M784.1 231.6H782.8V219.7H784.1V231.6Z" fill="#535353"/>
    <path d="M793.1 223.5L789.4 232.8C788.7 234.5 787.8 235.3 786.6 235.3C786.3 235.3 786 235.3 785.8 235.2V234.1C786.1 234.2 786.3 234.2 786.6 234.2C787.2 234.2 787.7 233.8 788.1 233L788.7 231.5L785.6 223.5H787L789.2 229.7C789.2 229.8 789.3 230 789.4 230.3C789.4 230.2 789.5 230 789.6 229.7L791.9 223.5H793.1V223.5Z" fill="#535353"/>
    <path d="M798.2 231.5C797.9 231.7 797.5 231.8 797 231.8C795.6 231.8 794.9 231 794.9 229.4V224.7H793.5V223.6H794.9V221.6L796.2 221.2V223.6H798.2V224.7H796.2V229.2C796.2 229.7 796.3 230.1 796.5 230.4C796.7 230.6 797 230.7 797.4 230.7C797.7 230.7 798 230.6 798.2 230.4V231.5V231.5Z" fill="#535353"/>
    <path d="M800.5 221.5C800.3 221.5 800.1 221.4 799.9 221.3C799.7 221.2 799.7 220.9 799.7 220.7C799.7 220.5 799.8 220.3 799.9 220.1C800.1 219.9 800.3 219.9 800.5 219.9C800.7 219.9 800.9 220 801.1 220.1C801.3 220.3 801.3 220.5 801.3 220.7C801.3 220.9 801.2 221.1 801.1 221.3C801 221.4 800.8 221.5 800.5 221.5ZM801.2 231.6H799.9V223.6H801.2V231.6Z" fill="#535353"/>
    <path d="M809.2 231.2C808.6 231.6 807.9 231.8 807 231.8C805.9 231.8 804.9 231.4 804.2 230.7C803.5 230 803.1 229 803.1 227.8C803.1 226.5 803.5 225.4 804.2 224.6C805 223.8 806 223.4 807.2 223.4C807.9 223.4 808.5 223.5 809.1 223.8V225.1C808.5 224.7 807.9 224.5 807.2 224.5C806.4 224.5 805.7 224.8 805.2 225.4C804.7 226 804.4 226.8 804.4 227.7C804.4 228.6 804.6 229.4 805.1 229.9C805.6 230.4 806.3 230.7 807.1 230.7C807.8 230.7 808.5 230.5 809.1 230L809.2 231.2Z" fill="#535353"/>
    <path d="M810.7 231.3V229.9C811.4 230.4 812.2 230.7 813 230.7C814.1 230.7 814.7 230.3 814.7 229.6C814.7 229.4 814.7 229.2 814.6 229.1C814.5 228.9 814.4 228.8 814.2 228.7C814 228.6 813.8 228.5 813.6 228.4C813.4 228.3 813.1 228.2 812.9 228.1C812.5 228 812.2 227.8 812 227.7C811.7 227.6 811.5 227.4 811.3 227.2C811.1 227 811 226.8 810.9 226.6C810.8 226.4 810.8 226.1 810.8 225.8C810.8 225.4 810.9 225.1 811.1 224.8C811.3 224.5 811.5 224.3 811.8 224.1C812.1 223.9 812.4 223.8 812.8 223.7C813.2 223.6 813.5 223.5 813.9 223.5C814.6 223.5 815.2 223.6 815.8 223.9V225.2C815.2 224.8 814.5 224.6 813.8 224.6C813.6 224.6 813.3 224.6 813.2 224.7C813 224.8 812.8 224.8 812.7 224.9C812.6 225 812.5 225.1 812.4 225.3C812.3 225.4 812.3 225.6 812.3 225.8C812.3 226 812.3 226.2 812.4 226.3C812.5 226.4 812.6 226.6 812.7 226.7C812.8 226.8 813 226.9 813.2 227C813.4 227.1 813.6 227.2 813.9 227.3C814.3 227.4 814.6 227.6 814.9 227.7C815.2 227.8 815.4 228 815.6 228.2C815.8 228.4 815.9 228.6 816.1 228.8C816.2 229 816.3 229.3 816.3 229.6C816.3 230 816.2 230.3 816 230.6C815.8 230.9 815.6 231.1 815.3 231.3C815 231.5 814.7 231.6 814.3 231.7C813.9 231.8 813.5 231.8 813.1 231.8C812 231.7 811.3 231.6 810.7 231.3Z" fill="#535353"/>
    <path d="M989.9 231.6H988.4L987.2 228.4H982.4L981.3 231.6H980L984.3 220.4H985.7L989.9 231.6ZM986.9 227.2L985.1 222.4C985 222.2 985 222 984.9 221.6C984.8 221.9 984.8 222.2 984.7 222.4L983 227.2H986.9Z" fill="#535353"/>
    <path d="M997 223.9L992.3 230.5H997V231.6H990.4V231.2L995.1 224.7H990.8V223.6H997V223.9Z" fill="#535353"/>
    <path d="M1005.2 231.6H1003.9V230.3C1003.4 231.3 1002.5 231.8 1001.4 231.8C999.5 231.8 998.5 230.7 998.5 228.4V223.6H999.8V228.2C999.8 229.9 1000.4 230.7 1001.7 230.7C1002.3 230.7 1002.8 230.5 1003.2 230C1003.6 229.5 1003.8 228.9 1003.8 228.2V223.6H1005.1L1005.2 231.6Z" fill="#535353"/>
    <path d="M1011.9 224.8C1011.7 224.6 1011.4 224.5 1010.9 224.5C1010.4 224.5 1009.9 224.8 1009.5 225.3C1009.1 225.8 1009 226.5 1009 227.4V231.5H1007.7V223.5H1009V225.2C1009.2 224.6 1009.5 224.2 1009.8 223.9C1010.2 223.6 1010.6 223.4 1011.1 223.4C1011.4 223.4 1011.7 223.4 1011.9 223.5V224.8Z" fill="#535353"/>
    <path d="M1019.8 227.9H1014.1C1014.1 228.8 1014.4 229.5 1014.8 230C1015.3 230.5 1015.9 230.7 1016.7 230.7C1017.6 230.7 1018.4 230.4 1019.2 229.8V231C1018.5 231.5 1017.6 231.8 1016.4 231.8C1015.3 231.8 1014.4 231.4 1013.7 230.7C1013.1 230 1012.7 228.9 1012.7 227.6C1012.7 226.4 1013.1 225.3 1013.8 224.5C1014.5 223.7 1015.4 223.3 1016.4 223.3C1017.4 223.3 1018.3 223.6 1018.8 224.3C1019.4 225 1019.7 225.9 1019.7 227.1V227.9H1019.8V227.9ZM1018.5 226.8C1018.5 226.1 1018.3 225.5 1018 225.1C1017.6 224.7 1017.2 224.5 1016.5 224.5C1015.9 224.5 1015.4 224.7 1015 225.2C1014.6 225.6 1014.3 226.2 1014.2 226.9H1018.5V226.8Z" fill="#535353"/>
    <path d="M1034 231.1C1033.2 231.5 1032.1 231.8 1030.9 231.8C1029.3 231.8 1028 231.3 1027.1 230.3C1026.1 229.3 1025.7 227.9 1025.7 226.3C1025.7 224.5 1026.2 223.1 1027.3 221.9C1028.4 220.8 1029.8 220.2 1031.4 220.2C1032.5 220.2 1033.3 220.4 1034.1 220.7V222.1C1033.3 221.6 1032.4 221.4 1031.4 221.4C1030.1 221.4 1029.1 221.8 1028.3 222.7C1027.5 223.6 1027.1 224.7 1027.1 226.2C1027.1 227.6 1027.5 228.7 1028.2 229.5C1029 230.3 1029.9 230.7 1031.2 230.7C1032.3 230.7 1033.3 230.4 1034.1 229.9V231.1H1034Z" fill="#535353"/>
    <path d="M1039.4 231.7C1038.2 231.7 1037.3 231.3 1036.6 230.6C1035.9 229.9 1035.5 228.9 1035.5 227.6C1035.5 226.3 1035.9 225.2 1036.6 224.4C1037.3 223.6 1038.3 223.3 1039.6 223.3C1040.8 223.3 1041.7 223.7 1042.4 224.4C1043.1 225.1 1043.4 226.2 1043.4 227.5C1043.4 228.8 1043 229.8 1042.3 230.6C1041.6 231.4 1040.6 231.7 1039.4 231.7ZM1039.5 224.4C1038.7 224.4 1038 224.7 1037.5 225.2C1037 225.7 1036.8 226.5 1036.8 227.5C1036.8 228.5 1037 229.2 1037.5 229.7C1038 230.2 1038.6 230.5 1039.4 230.5C1040.2 230.5 1040.9 230.2 1041.3 229.7C1041.7 229.2 1042 228.4 1042 227.4C1042 226.4 1041.8 225.6 1041.3 225.1C1041 224.7 1040.3 224.4 1039.5 224.4Z" fill="#535353"/>
    <path d="M1045 231.3V229.9C1045.7 230.4 1046.5 230.7 1047.3 230.7C1048.4 230.7 1049 230.3 1049 229.6C1049 229.4 1049 229.2 1048.9 229.1C1048.8 228.9 1048.7 228.8 1048.5 228.7C1048.3 228.6 1048.1 228.5 1047.9 228.4C1047.7 228.3 1047.4 228.2 1047.2 228.1C1046.9 228 1046.5 227.8 1046.3 227.7C1046 227.6 1045.8 227.4 1045.6 227.2C1045.4 227 1045.3 226.8 1045.2 226.6C1045.1 226.4 1045.1 226.1 1045.1 225.8C1045.1 225.4 1045.2 225.1 1045.4 224.8C1045.6 224.5 1045.8 224.3 1046.1 224.1C1046.4 223.9 1046.7 223.8 1047.1 223.7C1047.5 223.6 1047.8 223.5 1048.2 223.5C1048.9 223.5 1049.5 223.6 1050.1 223.9V225.2C1049.5 224.8 1048.8 224.6 1048.1 224.6C1047.9 224.6 1047.7 224.6 1047.4 224.7C1047.2 224.8 1047.1 224.8 1046.9 224.9C1046.7 225 1046.7 225.1 1046.6 225.3C1046.5 225.4 1046.5 225.6 1046.5 225.8C1046.5 226 1046.5 226.2 1046.6 226.3C1046.7 226.4 1046.8 226.6 1046.9 226.7C1047 226.8 1047.2 226.9 1047.4 227C1047.6 227.1 1047.8 227.2 1048.1 227.3C1048.4 227.4 1048.8 227.6 1049.1 227.7C1049.4 227.8 1049.6 228 1049.8 228.2C1050 228.4 1050.1 228.6 1050.3 228.8C1050.4 229 1050.5 229.3 1050.5 229.6C1050.5 230 1050.4 230.3 1050.2 230.6C1050 230.9 1049.8 231.1 1049.5 231.3C1049.2 231.5 1048.9 231.6 1048.5 231.7C1048.1 231.8 1047.7 231.8 1047.3 231.8C1046.3 231.7 1045.6 231.6 1045 231.3Z" fill="#535353"/>
    <path d="M1063.7 231.6H1062.4V227C1062.4 226.1 1062.3 225.5 1062 225.1C1061.7 224.7 1061.3 224.5 1060.6 224.5C1060 224.5 1059.6 224.8 1059.2 225.3C1058.8 225.8 1058.6 226.4 1058.6 227.1V231.7H1057.3V226.9C1057.3 225.3 1056.7 224.5 1055.5 224.5C1054.9 224.5 1054.5 224.7 1054.1 225.2C1053.7 225.7 1053.6 226.3 1053.6 227V231.6H1052.3V223.6H1053.6V224.9C1054.2 223.9 1055 223.4 1056.1 223.4C1056.6 223.4 1057.1 223.6 1057.5 223.9C1057.9 224.2 1058.2 224.6 1058.3 225.1C1058.9 224 1059.8 223.4 1061 223.4C1062.8 223.4 1063.7 224.5 1063.7 226.7V231.6Z" fill="#535353"/>
    <path d="M1069.4 231.7C1068.2 231.7 1067.3 231.3 1066.6 230.6C1065.9 229.9 1065.5 228.9 1065.5 227.6C1065.5 226.3 1065.9 225.2 1066.6 224.4C1067.3 223.6 1068.3 223.3 1069.6 223.3C1070.8 223.3 1071.7 223.7 1072.4 224.4C1073.1 225.1 1073.4 226.2 1073.4 227.5C1073.4 228.8 1073 229.8 1072.3 230.6C1071.6 231.4 1070.7 231.7 1069.4 231.7ZM1069.5 224.4C1068.7 224.4 1068 224.7 1067.5 225.2C1067 225.8 1066.8 226.5 1066.8 227.5C1066.8 228.5 1067 229.2 1067.5 229.7C1068 230.2 1068.6 230.5 1069.5 230.5C1070.3 230.5 1071 230.2 1071.4 229.7C1071.8 229.2 1072.1 228.4 1072.1 227.4C1072.1 226.4 1071.9 225.6 1071.4 225.1C1071 224.7 1070.4 224.4 1069.5 224.4Z" fill="#535353"/>
    <path d="M1075 231.3V229.9C1075.7 230.4 1076.5 230.7 1077.3 230.7C1078.4 230.7 1079 230.3 1079 229.6C1079 229.4 1079 229.2 1078.8 229.1C1078.7 228.9 1078.6 228.8 1078.4 228.7C1078.2 228.6 1078 228.5 1077.8 228.4C1077.6 228.3 1077.3 228.2 1077.1 228.1C1076.8 228 1076.4 227.8 1076.2 227.7C1075.9 227.6 1075.7 227.4 1075.5 227.2C1075.3 227 1075.2 226.8 1075.1 226.6C1075 226.4 1075 226.1 1075 225.8C1075 225.4 1075.1 225.1 1075.3 224.8C1075.5 224.5 1075.7 224.3 1076 224.1C1076.3 223.9 1076.6 223.8 1077 223.7C1077.4 223.6 1077.8 223.5 1078.1 223.5C1078.8 223.5 1079.4 223.6 1080 223.9V225.2C1079.4 224.8 1078.7 224.6 1078 224.6C1077.8 224.6 1077.6 224.6 1077.3 224.7C1077.1 224.8 1076.9 224.8 1076.8 224.9C1076.7 225 1076.5 225.1 1076.5 225.3C1076.4 225.4 1076.4 225.6 1076.4 225.8C1076.4 226 1076.4 226.2 1076.5 226.3C1076.6 226.4 1076.7 226.6 1076.8 226.7C1076.9 226.8 1077.1 226.9 1077.3 227C1077.5 227.1 1077.7 227.2 1078 227.3C1078.3 227.4 1078.7 227.6 1079 227.7C1079.3 227.8 1079.5 228 1079.7 228.2C1079.9 228.4 1080 228.6 1080.2 228.8C1080.3 229 1080.4 229.3 1080.4 229.6C1080.4 230 1080.3 230.3 1080.1 230.6C1079.9 230.9 1079.7 231.1 1079.4 231.3C1079.1 231.5 1078.8 231.6 1078.4 231.7C1078 231.8 1077.6 231.8 1077.2 231.8C1076.3 231.7 1075.6 231.6 1075 231.3Z" fill="#535353"/>
    <path d="M1086.9 231.6V220.4H1090C1094 220.4 1095.9 222.2 1095.9 225.9C1095.9 227.6 1095.3 229 1094.2 230.1C1093.1 231.2 1091.6 231.7 1089.8 231.7L1086.9 231.6ZM1088.2 221.5V230.4H1089.9C1091.4 230.4 1092.5 230 1093.3 229.2C1094.1 228.4 1094.5 227.3 1094.5 225.8C1094.5 222.9 1093 221.5 1089.9 221.5H1088.2Z" fill="#535353"/>
    <path d="M1098.1 231.6V220.4H1101.3C1102.3 220.4 1103 220.6 1103.6 221.1C1104.2 221.6 1104.4 222.2 1104.4 223C1104.4 223.6 1104.2 224.2 1103.9 224.7C1103.6 225.2 1103.1 225.5 1102.5 225.7C1103.3 225.8 1103.9 226.1 1104.3 226.6C1104.8 227.1 1105 227.7 1105 228.5C1105 229.5 1104.7 230.2 1104 230.8C1103.3 231.4 1102.5 231.7 1101.4 231.7L1098.1 231.6ZM1099.4 221.5V225.1H1100.7C1101.4 225.1 1102 224.9 1102.4 224.6C1102.8 224.3 1103 223.8 1103 223.1C1103 222 1102.3 221.5 1100.8 221.5H1099.4ZM1099.4 226.3V230.3H1101.2C1102 230.3 1102.6 230.1 1103 229.8C1103.4 229.4 1103.6 228.9 1103.6 228.3C1103.6 227 1102.7 226.3 1100.9 226.3H1099.4Z" fill="#535353"/>
    <path d="M1144.7 554.1V558.3H1143.4V547.1H1146.5C1147.7 547.1 1148.6 547.4 1149.3 548C1150 548.6 1150.3 549.4 1150.3 550.5C1150.3 551.6 1149.9 552.4 1149.2 553.1C1148.5 553.8 1147.5 554.1 1146.2 554.1H1144.7ZM1144.7 548.3V552.9H1146.1C1147 552.9 1147.7 552.7 1148.2 552.3C1148.7 551.9 1148.9 551.3 1148.9 550.5C1148.9 549 1148 548.3 1146.3 548.3H1144.7Z" fill="#535353"/>
    <path d="M1155 558.5C1153.8 558.5 1152.9 558.1 1152.2 557.4C1151.5 556.7 1151.1 555.7 1151.1 554.4C1151.1 553.1 1151.5 552 1152.2 551.2C1152.9 550.4 1153.9 550.1 1155.2 550.1C1156.4 550.1 1157.3 550.5 1158 551.2C1158.7 551.9 1159 553 1159 554.3C1159 555.6 1158.6 556.6 1157.9 557.4C1157.2 558.1 1156.2 558.5 1155 558.5ZM1155.1 551.2C1154.3 551.2 1153.6 551.5 1153.1 552C1152.6 552.6 1152.4 553.3 1152.4 554.3C1152.4 555.3 1152.6 556 1153.1 556.5C1153.6 557 1154.2 557.3 1155.1 557.3C1155.9 557.3 1156.6 557 1157 556.5C1157.5 556 1157.7 555.2 1157.7 554.2C1157.7 553.2 1157.5 552.4 1157 551.9C1156.5 551.4 1155.9 551.2 1155.1 551.2Z" fill="#535353"/>
    <path d="M1171.1 550.3L1168.7 558.3H1167.4L1165.7 552.6C1165.6 552.4 1165.6 552.1 1165.6 551.9C1165.6 552.1 1165.5 552.3 1165.4 552.6L1163.6 558.4H1162.3L1159.9 550.4H1161.2L1162.9 556.4C1162.9 556.6 1163 556.8 1163 557.1H1163.1C1163.1 556.9 1163.2 556.6 1163.2 556.4L1165 550.4H1166.2L1167.9 556.4C1167.9 556.6 1168 556.8 1168 557.1H1168.1C1168.1 556.9 1168.2 556.7 1168.2 556.4L1169.8 550.4H1171.1V550.3V550.3Z" fill="#535353"/>
    <path d="M1179.1 554.6H1173.4C1173.4 555.5 1173.7 556.2 1174.1 556.7C1174.6 557.2 1175.2 557.4 1176 557.4C1176.9 557.4 1177.7 557.1 1178.5 556.5V557.7C1177.8 558.2 1176.9 558.5 1175.7 558.5C1174.6 558.5 1173.7 558.1 1173 557.4C1172.4 556.7 1172 555.6 1172 554.3C1172 553.1 1172.3 552 1173.1 551.2C1173.8 550.4 1174.7 550 1175.7 550C1176.7 550 1177.6 550.3 1178.1 551C1178.7 551.7 1179 552.6 1179 553.8V554.6H1179.1V554.6ZM1177.8 553.5C1177.8 552.8 1177.6 552.2 1177.3 551.8C1177 551.4 1176.5 551.2 1175.8 551.2C1175.2 551.2 1174.7 551.4 1174.3 551.9C1173.9 552.3 1173.6 552.9 1173.5 553.6H1177.8V553.5Z" fill="#535353"/>
    <path d="M1185.2 551.6C1185 551.4 1184.7 551.3 1184.2 551.3C1183.7 551.3 1183.2 551.6 1182.8 552.1C1182.4 552.6 1182.3 553.3 1182.3 554.2V558.3H1181V550.3H1182.3V552C1182.5 551.4 1182.8 551 1183.1 550.7C1183.5 550.4 1183.9 550.2 1184.4 550.2C1184.7 550.2 1185 550.2 1185.2 550.3V551.6Z" fill="#535353"/>
    <path d="M1191.2 558.3V547.1H1194.4C1195.4 547.1 1196.2 547.3 1196.7 547.8C1197.3 548.3 1197.6 548.9 1197.6 549.7C1197.6 550.3 1197.4 550.9 1197.1 551.4C1196.8 551.9 1196.3 552.2 1195.7 552.4C1196.5 552.5 1197.1 552.8 1197.5 553.3C1198 553.8 1198.2 554.4 1198.2 555.2C1198.2 556.2 1197.9 556.9 1197.2 557.5C1196.5 558.1 1195.6 558.4 1194.6 558.4L1191.2 558.3ZM1192.5 548.3V551.9H1193.8C1194.5 551.9 1195.1 551.7 1195.5 551.4C1195.9 551.1 1196.1 550.6 1196.1 549.9C1196.1 548.8 1195.4 548.3 1193.9 548.3H1192.5ZM1192.5 553.1V557.1H1194.3C1195.1 557.1 1195.7 556.9 1196.1 556.6C1196.5 556.2 1196.7 555.7 1196.7 555.1C1196.7 553.8 1195.8 553.1 1194 553.1H1192.5Z" fill="#535353"/>
    <path d="M1201.7 558.3H1200.4V547.1H1201.7V558.3Z" fill="#535353"/>
    <path d="M1164.3 334.2H1162.8L1161.6 331.1H1156.8L1155.7 334.2H1154.2L1158.5 323H1159.9L1164.3 334.2ZM1161.2 329.8L1159.4 325C1159.4 324.8 1159.3 324.6 1159.2 324.2C1159.1 324.5 1159.1 324.8 1159 325L1157.2 329.8H1161.2Z" fill="#535353"/>
    <path d="M1167.1 333V337.9H1165.8V326.2H1167.1V327.6C1167.7 326.5 1168.7 326 1169.9 326C1170.9 326 1171.7 326.4 1172.3 327.1C1172.9 327.8 1173.2 328.8 1173.2 330C1173.2 331.3 1172.9 332.4 1172.2 333.2C1171.6 334 1170.7 334.4 1169.5 334.4C1168.5 334.4 1167.7 333.9 1167.1 333ZM1167.1 329.8V330.9C1167.1 331.6 1167.3 332.1 1167.8 332.6C1168.2 333.1 1168.8 333.3 1169.4 333.3C1170.2 333.3 1170.8 333 1171.2 332.4C1171.6 331.8 1171.9 331 1171.9 329.9C1171.9 329 1171.7 328.3 1171.3 327.8C1170.9 327.3 1170.3 327 1169.6 327C1168.9 327 1168.2 327.3 1167.8 327.8C1167.3 328.3 1167.1 329 1167.1 329.8Z" fill="#535353"/>
    <path d="M1176.6 333V337.9H1175.3V326.2H1176.6V327.6C1177.2 326.5 1178.1 326 1179.4 326C1180.4 326 1181.2 326.4 1181.8 327.1C1182.4 327.8 1182.7 328.8 1182.7 330C1182.7 331.3 1182.4 332.4 1181.7 333.2C1181 334 1180.2 334.4 1179 334.4C1177.9 334.4 1177.1 333.9 1176.6 333ZM1176.5 329.8V330.9C1176.5 331.6 1176.7 332.1 1177.2 332.6C1177.6 333.1 1178.2 333.3 1178.8 333.3C1179.6 333.3 1180.2 333 1180.6 332.4C1181 331.8 1181.3 331 1181.3 329.9C1181.3 329 1181.1 328.3 1180.7 327.8C1180.3 327.3 1179.7 327 1179 327C1178.3 327 1177.7 327.3 1177.2 327.8C1176.7 328.3 1176.5 329 1176.5 329.8Z" fill="#535353"/>
    <path d="M1184.2 333.9V332.5C1184.9 333 1185.7 333.3 1186.5 333.3C1187.6 333.3 1188.2 332.9 1188.2 332.2C1188.2 332 1188.1 331.8 1188 331.7C1187.9 331.6 1187.8 331.4 1187.6 331.3C1187.4 331.2 1187.2 331.1 1187 331C1186.8 330.9 1186.5 330.8 1186.3 330.7C1185.9 330.6 1185.6 330.4 1185.4 330.3C1185.1 330.2 1184.9 330 1184.7 329.8C1184.5 329.6 1184.4 329.4 1184.3 329.2C1184.2 329 1184.2 328.7 1184.2 328.4C1184.2 328 1184.3 327.7 1184.5 327.4C1184.7 327.1 1184.9 326.9 1185.2 326.7C1185.5 326.5 1185.8 326.4 1186.2 326.3C1186.6 326.2 1187 326.2 1187.3 326.2C1188 326.2 1188.6 326.3 1189.2 326.6V327.9C1188.6 327.5 1187.9 327.3 1187.2 327.3C1187 327.3 1186.8 327.3 1186.6 327.4C1186.4 327.5 1186.2 327.5 1186.1 327.6C1186 327.7 1185.8 327.8 1185.8 328C1185.7 328.1 1185.7 328.3 1185.7 328.5C1185.7 328.7 1185.7 328.9 1185.8 329C1185.9 329.1 1186 329.3 1186.1 329.4C1186.3 329.5 1186.4 329.6 1186.6 329.7C1186.8 329.8 1187 329.9 1187.3 330C1187.7 330.1 1188 330.3 1188.3 330.4C1188.6 330.5 1188.8 330.7 1189 330.9C1189.2 331.1 1189.3 331.3 1189.5 331.5C1189.6 331.7 1189.7 332 1189.7 332.3C1189.7 332.7 1189.6 333 1189.4 333.3C1189.2 333.6 1189 333.8 1188.7 334C1188.4 334.2 1188.1 334.3 1187.7 334.4C1187.3 334.5 1186.9 334.5 1186.5 334.5C1185.5 334.4 1184.8 334.2 1184.2 333.9Z" fill="#535353"/>
    <path d="M261.2 49.4001H259V36.3H261.2V49.4001Z" fill="#535353"/>
    <path d="M275.5 49.4001H273.1L266.8 39.8C266.6 39.6 266.5 39.3 266.4 39H266.3C266.3 39.3 266.4 39.9 266.4 40.8V49.4001H264.3V36.3H266.8L272.8 45.7001C273.1 46.1001 273.2 46.4 273.3 46.5C273.2 46.2 273.2 45.6001 273.2 44.7001V36.3H275.3V49.4001H275.5V49.4001Z" fill="#535353"/>
    <path d="M289 48.5C287.6 49.2 286.1 49.6 284.4 49.6C282.5 49.6 280.9 49 279.7 47.8C278.5 46.6 277.9 45 277.9 43C277.9 41 278.6 39.3 279.9 38C281.2 36.7 282.9 36 284.9 36C286.4 36 287.6 36.2 288.6 36.6V38.8C287.6 38.1 286.4 37.8 285 37.8C283.6 37.8 282.5 38.3 281.6 39.2C280.7 40.1 280.3 41.3 280.3 42.8C280.3 44.3 280.7 45.5 281.4 46.3C282.2 47.2 283.2 47.6 284.5 47.6C285.4 47.6 286.2 47.4 286.8 47.1V44H284V42.2H288.9L289 48.5Z" fill="#535353"/>
    <path d="M299.2 49.4001H291.8V36.3H298.9V38.1H294V41.8H298.5V43.6H294V47.5H299.2V49.4001Z" fill="#535353"/>
    <path d="M300.9 48.7999V46.5999C301.1 46.7999 301.3 46.8999 301.6 47.0999C301.9 47.1999 302.2 47.4 302.5 47.5C302.8 47.6 303.1 47.7 303.4 47.7C303.7 47.8 304 47.7999 304.3 47.7999C305.2 47.7999 305.9 47.5999 306.3 47.2999C306.7 46.9999 307 46.6 307 46C307 45.7 306.9 45.4 306.8 45.2C306.7 45 306.4 44.7999 306.2 44.5999C305.9 44.3999 305.6 44.1999 305.3 44.0999C304.9 43.8999 304.5 43.6999 304.1 43.5999C303.7 43.3999 303.2 43.1 302.9 42.9C302.6 42.7 302.2 42.3999 301.9 42.0999C301.6 41.7999 301.4 41.4999 301.2 41.0999C301 40.6999 301 40.2999 301 39.7999C301 39.1999 301.1 38.6 301.4 38.2C301.7 37.7 302 37.4 302.5 37.1C303 36.8 303.5 36.6 304 36.4C304.6 36.3 305.2 36.2 305.8 36.2C307.2 36.2 308.2 36.4 308.8 36.7V38.7999C308.1 38.2999 307.1 38 305.9 38C305.6 38 305.3 38 304.9 38.1C304.6 38.2 304.3 38.3 304 38.4C303.7 38.5 303.5 38.7 303.4 38.9C303.2 39.1 303.2 39.4 303.2 39.7C303.2 40 303.3 40.2 303.4 40.5C303.5 40.7 303.7 40.8999 303.9 41.0999C304.1 41.2999 304.4 41.3999 304.8 41.5999C305.1 41.7999 305.5 41.8999 306 42.0999C306.5 42.2999 306.9 42.5999 307.3 42.7999C307.7 43.0999 308.1 43.4 308.4 43.7C308.7 44 309 44.3999 309.1 44.7999C309.3 45.1999 309.4 45.5999 309.4 46.0999C309.4 46.7999 309.3 47.2999 309 47.7999C308.7 48.2999 308.4 48.6 307.9 48.9C307.4 49.2 306.9 49.4 306.3 49.5C305.7 49.6 305.1 49.7 304.4 49.7C304.2 49.7 303.9 49.6999 303.6 49.5999C303.3 49.5999 303 49.5 302.6 49.5C302.3 49.4 301.9 49.3999 301.6 49.2999C301.3 49.0999 301.1 48.9999 300.9 48.7999Z" fill="#535353"/>
    <path d="M320.1 38.1H316.3V49.4001H314.1V38.1H310.3V36.3H320L320.1 38.1Z" fill="#535353"/>
    <path d="M666.5 44.6V49.4001H664.3V36.3H668.3C669.8 36.3 671 36.6 671.8 37.4C672.6 38.1 673 39.1001 673 40.4001C673 41.7001 672.6 42.7 671.7 43.5C670.8 44.3 669.7 44.7001 668.2 44.7001H666.5V44.6ZM666.5 38.1V42.9001H667.9C668.8 42.9001 669.5 42.7001 670 42.2001C670.5 41.8001 670.7 41.2001 670.7 40.4001C670.7 38.9001 669.8 38.1 668 38.1H666.5V38.1Z" fill="#535353"/>
    <path d="M685.4 49.4001H682.9L680.8 45.9001C680.6 45.6001 680.4 45.3 680.2 45.1C680 44.9 679.8 44.7 679.7 44.5C679.5 44.4 679.3 44.2001 679.1 44.2001C678.9 44.1001 678.6 44.1 678.4 44.1H677.5V49.4001H675.3V36.3H679.6C680.2 36.3 680.8 36.4 681.3 36.5C681.8 36.6 682.3 36.9001 682.7 37.2001C683.1 37.5001 683.4 37.9 683.6 38.3C683.8 38.7 683.9 39.3 683.9 39.8C683.9 40.3 683.8 40.7 683.7 41.1C683.6 41.5 683.4 41.8 683.1 42.1C682.8 42.4 682.5 42.7001 682.2 42.9001C681.8 43.1001 681.4 43.3001 681 43.4001C681.2 43.5001 681.4 43.7 681.6 43.8C681.8 44 681.9 44.1 682.1 44.3C682.3 44.5 682.4 44.7001 682.6 44.9001C682.8 45.1001 682.9 45.4001 683.1 45.7001L685.4 49.4001ZM677.4 38V42.3H679.2C679.5 42.3 679.8 42.2 680.1 42.1C680.4 42 680.6 41.8001 680.8 41.7001C681 41.5001 681.2 41.3 681.3 41C681.4 40.7 681.5 40.4 681.5 40.1C681.5 39.5 681.3 39 680.9 38.6C680.5 38.2 679.9 38.1 679.2 38.1H677.4V38Z" fill="#535353"/>
    <path d="M694.2 49.4001H686.8V36.3H693.9V38.1H689V41.8H693.5V43.6H689V47.5H694.2V49.4001Z" fill="#535353"/>
    <path d="M698.7 44.6V49.4001H696.5V36.3H700.5C702 36.3 703.2 36.6 704 37.4C704.8 38.1 705.2 39.1001 705.2 40.4001C705.2 41.7001 704.8 42.7 703.9 43.5C703 44.3 701.9 44.7001 700.4 44.7001H698.7V44.6ZM698.7 38.1V42.9001H700.1C701 42.9001 701.7 42.7001 702.2 42.2001C702.7 41.8001 702.9 41.2001 702.9 40.4001C702.9 38.9001 702 38.1 700.2 38.1H698.7V38.1Z" fill="#535353"/>
    <path d="M723.4 49.4001H721L719.8 46.1H714.6L713.5 49.4001H711.1L716 36.3H718.4L723.4 49.4001ZM719.3 44.3L717.5 39.1C717.4 38.9 717.4 38.7 717.3 38.3C717.2 38.6 717.2 38.9 717.1 39.1L715.3 44.3H719.3Z" fill="#535353"/>
    <path d="M736.3 49.4001H734L727.7 39.8C727.5 39.6 727.4 39.3 727.3 39H727.2C727.2 39.3 727.3 39.9 727.3 40.8V49.4001H725.2V36.3H727.7L733.7 45.7001C734 46.1001 734.1 46.4 734.2 46.5C734.1 46.2 734.1 45.6001 734.1 44.7001V36.3H736.2L736.3 49.4001Z" fill="#535353"/>
    <path d="M739.6 49.4001V36.3H743.4C748.2 36.3 750.6 38.4001 750.6 42.7001C750.6 44.7001 749.9 46.3 748.6 47.6C747.3 48.8 745.5 49.4001 743.2 49.4001H739.6ZM741.7 38.1V47.5H743.4C744.9 47.5 746.1 47.1001 747 46.2001C747.8 45.4001 748.3 44.2 748.3 42.6C748.3 39.5 746.7 38 743.5 38H741.7V38.1V38.1Z" fill="#535353"/>
    <path d="M766.5 38.1H762.7V49.4001H760.5V38.1H756.7V36.3H766.4L766.5 38.1Z" fill="#535353"/>
    <path d="M778.6 49.4001H776L773.9 45.9001C773.7 45.6001 773.5 45.3 773.3 45.1C773.1 44.9 772.9 44.7 772.8 44.5C772.6 44.4 772.4 44.2001 772.2 44.2001C772 44.1001 771.7 44.1 771.5 44.1H770.6V49.4001H768.4V36.3H772.7C773.3 36.3 773.9 36.4 774.4 36.5C774.9 36.6 775.4 36.9001 775.8 37.2001C776.2 37.5001 776.5 37.9 776.7 38.3C776.9 38.7 777 39.3 777 39.8C777 40.3 776.9 40.7 776.8 41.1C776.7 41.5 776.5 41.8 776.2 42.1C775.9 42.4 775.6 42.7001 775.3 42.9001C774.9 43.1001 774.5 43.3001 774.1 43.4001C774.3 43.5001 774.5 43.7 774.7 43.8C774.9 44 775 44.1 775.2 44.3C775.4 44.5 775.5 44.7001 775.7 44.9001C775.9 45.1001 776 45.4001 776.2 45.7001L778.6 49.4001ZM770.6 38V42.3H772.4C772.7 42.3 773 42.2 773.3 42.1C773.6 42 773.8 41.8001 774 41.7001C774.2 41.5001 774.4 41.3 774.5 41C774.6 40.7 774.7 40.4 774.7 40.1C774.7 39.5 774.5 39 774.1 38.6C773.7 38.2 773.1 38.1 772.4 38.1H770.6V38Z" fill="#535353"/>
    <path d="M790.9 49.4001H788.5L787.3 46.1H782.1L781 49.4001H778.6L783.5 36.3H785.9L790.9 49.4001ZM786.7 44.3L784.9 39.1C784.8 38.9 784.8 38.7 784.7 38.3C784.6 38.6 784.6 38.9 784.5 39.1L782.7 44.3H786.7Z" fill="#535353"/>
    <path d="M794.9 49.4001H792.7V36.3H794.9V49.4001Z" fill="#535353"/>
    <path d="M809.3 49.4001H806.9L800.6 39.8C800.4 39.6 800.3 39.3 800.2 39H800.1C800.1 39.3 800.2 39.9 800.2 40.8V49.4001H798.1V36.3H800.6L806.6 45.7001C806.9 46.1001 807 46.4 807.1 46.5C807 46.2 807 45.6001 807 44.7001V36.3H809.1V49.4001H809.3V49.4001Z" fill="#535353"/>
    <defs>
        <linearGradient id="paint0_linear" x1="1022.4" y1="380.65" x2="1062.53" y2="380.65" gradientUnits="userSpaceOnUse">
            <stop stop-color="#005CA1"/>
            <stop offset="0.07" stop-color="#0161AA"/>
            <stop offset="0.36" stop-color="#2571B8"/>
            <stop offset="0.52" stop-color="#2E76BC"/>
            <stop offset="0.64" stop-color="#2973BA"/>
            <stop offset="0.82" stop-color="#166BB5"/>
            <stop offset="1" stop-color="#005CA1"/>
        </linearGradient>
        <radialGradient id="paint1_radial" cx="0" cy="0" r="1" gradientUnits="userSpaceOnUse" gradientTransform="translate(1043.62 381.951) scale(22.134 21.9212)">
            <stop stop-color="#F2F2F3"/>
            <stop offset="0.58" stop-color="#EEEEEE"/>
            <stop offset="1" stop-color="#E6E6E6"/>
        </radialGradient>
    </defs>
</svg>
